999
dxfrw 0.6.3
  0
SECTION
  2
HEADER
  9
$ACADVER
  1
AC1021
  9
$DWGCODEPAGE
  3
ANSI_1252
  9
$INSBASE
 10
0
 20
0
 30
0
  9
$EXTMIN
 10
-9.937500000006695
 20
-99.62500000000004
 30
0
  9
$EXTMAX
 10
248.0625000000003
 20
4.375
 30
0
  9
$LIMMIN
 10
0
 20
0
  9
$LIMMAX
 10
420
 20
297
  9
$ORTHOMODE
 70
    0
  9
$REGENMODE
 70
    1
  9
$FILLMODE
 70
    1
  9
$QTEXTMODE
 70
    0
  9
$MIRRTEXT
 70
    1
  9
$LTSCALE
 40
1
  9
$ATTMODE
 70
    1
  9
$TEXTSIZE
 40
3.5
  9
$TRACEWID
 40
1
  9
$TEXTSTYLE
  7
STANDARD
  9
$CLAYER
  8
0
  9
$CELTYPE
  6
ByLayer
  9
$CECOLOR
 62
  256
  9
$CELTSCALE
 40
1
  9
$DISPSILH
 70
    0
  9
$DIMSCALE
 40
1
  9
$DIMASZ
 40
3.302
  9
$DIMEXO
 40
0
  9
$DIMDLI
 40
3.75
  9
$DIMRND
 40
0
  9
$DIMDLE
 40
0
  9
$DIMEXE
 40
1
  9
$DIMTP
 40
0
  9
$DIMTM
 40
0
  9
$DIMTXT
 40
3.5
  9
$DIMCEN
 40
2.5
  9
$DIMTSZ
 40
0
  9
$DIMTOL
 70
    0
  9
$DIMLIM
 70
    0
  9
$DIMTIH
 70
    1
  9
$DIMTOH
 70
    1
  9
$DIMSE1
 70
    0
  9
$DIMSE2
 70
    0
  9
$DIMTAD
 70
    1
  9
$DIMZIN
 70
    1
  9
$DIMBLK
  1

  9
$DIMASO
 70
    1
  9
$DIMSHO
 70
    1
  9
$DIMPOST
  1

  9
$DIMAPOST
  1

  9
$DIMALT
 70
    0
  9
$DIMALTD
 70
    3
  9
$DIMALTF
 40
0.0393700787
  9
$DIMLFAC
 40
1
  9
$DIMTOFL
 70
    1
  9
$DIMTVP
 40
0
  9
$DIMTIX
 70
    0
  9
$DIMSOXD
 70
    0
  9
$DIMSAH
 70
    0
  9
$DIMBLK1
  1

  9
$DIMBLK2
  1

  9
$DIMSTYLE
  2
ISO-25
  9
$DIMCLRD
 70
    0
  9
$DIMCLRE
 70
    0
  9
$DIMCLRT
 70
    0
  9
$DIMTFAC
 40
1
  9
$DIMGAP
 40
1.524
  9
$DIMJUST
 70
    0
  9
$DIMSD1
 70
    0
  9
$DIMSD2
 70
    0
  9
$DIMTOLJ
 70
    0
  9
$DIMTZIN
 70
    1
  9
$DIMALTZ
 70
    0
  9
$DIMALTTZ
 70
    0
  9
$DIMUPT
 70
    0
  9
$DIMDEC
 70
    2
  9
$DIMTDEC
 70
    2
  9
$DIMALTU
 70
    2
  9
$DIMALTTD
 70
    3
  9
$DIMTXSTY
  7
STANDARD
  9
$DIMAUNIT
 70
    0
  9
$DIMADEC
 70
    0
  9
$DIMALTRND
 40
0
  9
$DIMAZIN
 70
    0
  9
$DIMDSEP
 70
   44
  9
$DIMATFIT
 70
    3
  9
$DIMFRAC
 70
    0
  9
$DIMLDRBLK
  1

  9
$DIMLUNIT
 70
    2
  9
$DIMLWD
 70
   -2
  9
$DIMLWE
 70
   -2
  9
$DIMTMOVE
 70
    0
  9
$DIMFXL
 40
1
  9
$DIMFXLON
 70
    0
  9
$DIMJOGANG
 40
0.7854
  9
$DIMTFILL
 70
    0
  9
$DIMTFILLCLR
 70
    0
  9
$DIMARCSYM
 70
    0
  9
$DIMLTYPE
  6

  9
$DIMLTEX1
  6

  9
$DIMLTEX2
  6

  9
$LUNITS
 70
    2
  9
$LUPREC
 70
    2
  9
$SKETCHINC
 40
1
  9
$FILLETRAD
 40
0
  9
$AUNITS
 70
    0
  9
$AUPREC
 70
    2
  9
$MENU
  1
.
  9
$ELEVATION
 40
0
  9
$PELEVATION
 40
0
  9
$THICKNESS
 40
0
  9
$LIMCHECK
 70
    0
  9
$CHAMFERA
 40
0
  9
$CHAMFERB
 40
0
  9
$CHAMFERC
 40
0
  9
$CHAMFERD
 40
0
  9
$SKPOLY
 70
    0
  9
$USRTIMER
 70
    1
  9
$ANGBASE
 50
0
  9
$ANGDIR
 70
    0
  9
$PDMODE
 70
    0
  9
$PDSIZE
 40
-1
  9
$PLINEWID
 40
0
  9
$SPLFRAME
 70
    0
  9
$SPLINETYPE
 70
    6
  9
$SPLINESEGS
 70
    8
  9
$HANDSEED
  5
20000
  9
$SURFTAB1
 70
    6
  9
$SURFTAB2
 70
    6
  9
$SURFTYPE
 70
    6
  9
$SURFU
 70
    6
  9
$SURFV
 70
    6
  9
$UCSBASE
  2

  9
$UCSNAME
  2

  9
$UCSORG
 10
0
 20
0
 30
0
  9
$UCSXDIR
 10
1
 20
0
 30
0
  9
$UCSYDIR
 10
0
 20
1
 30
0
  9
$UCSORTHOREF
  2

  9
$UCSORTHOVIEW
 70
    0
  9
$UCSORGTOP
 10
0
 20
0
 30
0
  9
$UCSORGBOTTOM
 10
0
 20
0
 30
0
  9
$UCSORGLEFT
 10
0
 20
0
 30
0
  9
$UCSORGRIGHT
 10
0
 20
0
 30
0
  9
$UCSORGFRONT
 10
0
 20
0
 30
0
  9
$UCSORGBACK
 10
0
 20
0
 30
0
  9
$PUCSBASE
  2

  9
$PUCSNAME
  2

  9
$PUCSORG
 10
0
 20
0
 30
0
  9
$PUCSXDIR
 10
1
 20
0
 30
0
  9
$PUCSYDIR
 10
0
 20
1
 30
0
  9
$PUCSORTHOREF
  2

  9
$PUCSORTHOVIEW
 70
    0
  9
$PUCSORGTOP
 10
0
 20
0
 30
0
  9
$PUCSORGBOTTOM
 10
0
 20
0
 30
0
  9
$PUCSORGLEFT
 10
0
 20
0
 30
0
  9
$PUCSORGRIGHT
 10
0
 20
0
 30
0
  9
$PUCSORGFRONT
 10
0
 20
0
 30
0
  9
$PUCSORGBACK
 10
0
 20
0
 30
0
  9
$USERI1
 70
    0
  9
$USERI2
 70
    0
  9
$USERI3
 70
    0
  9
$USERI4
 70
    0
  9
$USERI5
 70
    0
  9
$USERR1
 40
0
  9
$USERR2
 40
0
  9
$USERR3
 40
0
  9
$USERR4
 40
0
  9
$USERR5
 40
0
  9
$WORLDVIEW
 70
    1
  9
$SHADEDGE
 70
    3
  9
$SHADEDIF
 70
   70
  9
$TILEMODE
 70
    1
  9
$MAXACTVP
 70
   64
  9
$PINSBASE
 10
0
 20
0
 30
0
  9
$PLIMCHECK
 70
    0
  9
$PEXTMIN
 10
1e+020
 20
1e+020
 30
1e+020
  9
$PEXTMAX
 10
-1e+020
 20
-1e+020
 30
-1e+020
  9
$GRIDMODE
 70
    0
  9
$SNAPSTYLE
 70
    0
  9
$PLIMMIN
 10
0
 20
0
  9
$PLIMMAX
 10
420
 20
297
  9
$UNITMODE
 70
    0
  9
$VISRETAIN
 70
    1
  9
$PLINEGEN
 70
    0
  9
$PSLTSCALE
 70
    1
  9
$TREEDEPTH
 70
 3020
  9
$CMLSTYLE
  2
Standard
  9
$CMLJUST
 70
    0
  9
$CMLSCALE
 40
20
  9
$PROXYGRAPHICS
 70
    1
  9
$MEASUREMENT
 70
    1
  9
$CELWEIGHT
370
   -1
  9
$ENDCAPS
280
    0
  9
$JOINSTYLE
280
    0
  9
$LWDISPLAY
290
    1
  9
$INSUNITS
 70
    4
  9
$HYPERLINKBASE
  1

  9
$STYLESHEET
  1

  9
$XEDIT
290
    1
  9
$CEPSNTYPE
380
    0
  9
$PSTYLEMODE
290
    1
  9
$EXTNAMES
290
    1
  9
$PSVPSCALE
 40
0
  9
$OLESTARTUP
290
    0
  9
$SORTENTS
280
  127
  9
$INDEXCTL
280
    0
  9
$HIDETEXT
280
    1
  9
$XCLIPFRAME
290
    0
  9
$HALOGAP
280
    0
  9
$OBSCOLOR
 70
  257
  9
$OBSLTYPE
280
    0
  9
$INTERSECTIONDISPLAY
280
    0
  9
$INTERSECTIONCOLOR
 70
  257
  9
$DIMASSOC
280
    1
  9
$PROJECTNAME
  1

  9
$CAMERADISPLAY
290
    0
  9
$LENSLENGTH
 40
50
  9
$CAMERAHEIGHT
 40
0
  9
$STEPSPERSEC
 40
2
  9
$STEPSIZE
 40
50
  9
$3DDWFPREC
 40
2
  9
$PSOLWIDTH
 40
5
  9
$PSOLHEIGHT
 40
80
  9
$LOFTANG1
 40
1.570796326794897
  9
$LOFTANG2
 40
1.570796326794897
  9
$LOFTMAG1
 40
0
  9
$LOFTMAG2
 40
0
  9
$LOFTPARAM
 70
    7
  9
$LOFTNORMALS
280
    1
  9
$LATITUDE
 40
1
  9
$LONGITUDE
 40
1
  9
$NORTHDIRECTION
 40
0
  9
$TIMEZONE
 70
-8000
  9
$LIGHTGLYPHDISPLAY
280
    1
  9
$TILEMODELIGHTSYNCH
280
    1
  9
$SOLIDHIST
280
    1
  9
$SHOWHIST
280
    1
  9
$DWFFRAME
280
    2
  9
$DGNFRAME
280
    0
  9
$REALWORLDSCALE
290
    1
  9
$INTERFERECOLOR
 62
    1
  9
$CSHADOW
280
    0
  9
$SHADOWPLANELOCATION
 40
0
  0
ENDSEC
  0
SECTION
  2
CLASSES
  0
ENDSEC
  0
SECTION
  2
TABLES
  0
TABLE
  2
VPORT
  5
8
330
0
100
AcDbSymbolTable
 70
    1
  0
VPORT
  5
31
330
2
100
AcDbSymbolTableRecord
100
AcDbViewportTableRecord
  2
*ACTIVE
 70
    0
 10
0
 20
0
 11
1
 21
1
 12
124.8060538116626
 22
7.592488789237872
 13
0
 23
0
 14
10
 24
10
 15
10
 25
10
 16
0
 26
0
 36
1
 17
0
 27
0
 37
0
 40
125.5291479820661
 41
2.078341013824885
 42
50
 43
0
 44
0
 50
0
 51
0
 71
    0
 72
  100
 73
    1
 74
    3
 75
    0
 76
    0
 77
    0
 78
    0
281
    0
 65
    1
110
0
120
0
130
0
111
1
121
0
131
0
112
0
122
1
132
0
 79
    0
146
0
348
10020
 60
    7
 61
    5
292
1
282
    1
141
0
142
0
 63
  250
421
3358443
  0
ENDTAB
  0
TABLE
  2
LTYPE
  5
5
330
0
100
AcDbSymbolTable
 70
    4
  0
LTYPE
  5
14
330
5
100
AcDbSymbolTableRecord
100
AcDbLinetypeTableRecord
  2
ByBlock
 70
    0
  3

 72
   65
 73
    0
 40
0
  0
LTYPE
  5
15
330
5
100
AcDbSymbolTableRecord
100
AcDbLinetypeTableRecord
  2
ByLayer
 70
    0
  3

 72
   65
 73
    0
 40
0
  0
LTYPE
  5
16
330
5
100
AcDbSymbolTableRecord
100
AcDbLinetypeTableRecord
  2
Continuous
 70
    0
  3
Solid line
 72
   65
 73
    0
 40
0
  0
LTYPE
  5
32
330
5
100
AcDbSymbolTableRecord
100
AcDbLinetypeTableRecord
  2
DOT
 70
    0
  3
Dot . . . . . . . . . . . . . . . . . . . . . .
 72
   65
 73
    2
 40
6.35
 49
0
 74
    0
 49
-6.35
 74
    0
  0
LTYPE
  5
33
330
5
100
AcDbSymbolTableRecord
100
AcDbLinetypeTableRecord
  2
DOTTINY
 70
    0
  3
Dot (.15x) .....................................
 72
   65
 73
    2
 40
0.9525
 49
0
 74
    0
 49
-0.9525
 74
    0
  0
LTYPE
  5
34
330
5
100
AcDbSymbolTableRecord
100
AcDbLinetypeTableRecord
  2
DOT2
 70
    0
  3
Dot (.5x) .....................................
 72
   65
 73
    2
 40
3.175
 49
0
 74
    0
 49
-3.175
 74
    0
  0
LTYPE
  5
35
330
5
100
AcDbSymbolTableRecord
100
AcDbLinetypeTableRecord
  2
DOTX2
 70
    0
  3
Dot (2x) .  .  .  .  .  .  .  .  .  .  .  .  .
 72
   65
 73
    2
 40
12.7
 49
0
 74
    0
 49
-12.7
 74
    0
  0
LTYPE
  5
36
330
5
100
AcDbSymbolTableRecord
100
AcDbLinetypeTableRecord
  2
DASHED
 70
    0
  3
Dashed _ _ _ _ _ _ _ _ _ _ _ _ _ _ _ _ _
 72
   65
 73
    2
 40
19.05
 49
12.7
 74
    0
 49
-6.35
 74
    0
  0
LTYPE
  5
37
330
5
100
AcDbSymbolTableRecord
100
AcDbLinetypeTableRecord
  2
DASHEDTINY
 70
    0
  3
Dashed (.15x) _ _ _ _ _ _ _ _ _ _ _ _ _ _ _ _ _
 72
   65
 73
    2
 40
2.8575
 49
1.905
 74
    0
 49
-0.9525
 74
    0
  0
LTYPE
  5
38
330
5
100
AcDbSymbolTableRecord
100
AcDbLinetypeTableRecord
  2
DASHED2
 70
    0
  3
Dashed (.5x) _ _ _ _ _ _ _ _ _ _ _ _ _ _ _ _ _
 72
   65
 73
    2
 40
9.524999999999999
 49
6.35
 74
    0
 49
-3.175
 74
    0
  0
LTYPE
  5
39
330
5
100
AcDbSymbolTableRecord
100
AcDbLinetypeTableRecord
  2
DASHEDX2
 70
    0
  3
Dashed (2x) ____  ____  ____  ____  ____  ___
 72
   65
 73
    2
 40
38.09999999999999
 49
25.4
 74
    0
 49
-12.7
 74
    0
  0
LTYPE
  5
3A
330
5
100
AcDbSymbolTableRecord
100
AcDbLinetypeTableRecord
  2
DASHDOT
 70
    0
  3
Dash dot __ . __ . __ . __ . __ . __ . __ . __
 72
   65
 73
    4
 40
25.4
 49
12.7
 74
    0
 49
-6.35
 74
    0
 49
0
 74
    0
 49
-6.35
 74
    0
  0
LTYPE
  5
3B
330
5
100
AcDbSymbolTableRecord
100
AcDbLinetypeTableRecord
  2
DASHDOTTINY
 70
    0
  3
Dash dot (.15x) _._._._._._._._._._._._._._._.
 72
   65
 73
    4
 40
3.81
 49
1.905
 74
    0
 49
-0.9525
 74
    0
 49
0
 74
    0
 49
-0.9525
 74
    0
  0
LTYPE
  5
3C
330
5
100
AcDbSymbolTableRecord
100
AcDbLinetypeTableRecord
  2
DASHDOT2
 70
    0
  3
Dash dot (.5x) _._._._._._._._._._._._._._._.
 72
   65
 73
    4
 40
12.7
 49
6.35
 74
    0
 49
-3.175
 74
    0
 49
0
 74
    0
 49
-3.175
 74
    0
  0
LTYPE
  5
3D
330
5
100
AcDbSymbolTableRecord
100
AcDbLinetypeTableRecord
  2
DASHDOTX2
 70
    0
  3
Dash dot (2x) ____  .  ____  .  ____  .  ___
 72
   65
 73
    4
 40
50.8
 49
25.4
 74
    0
 49
-12.7
 74
    0
 49
0
 74
    0
 49
-12.7
 74
    0
  0
LTYPE
  5
3E
330
5
100
AcDbSymbolTableRecord
100
AcDbLinetypeTableRecord
  2
DIVIDE
 70
    0
  3
Divide ____ . . ____ . . ____ . . ____ . . ____
 72
   65
 73
    6
 40
31.75
 49
12.7
 74
    0
 49
-6.35
 74
    0
 49
0
 74
    0
 49
-6.35
 74
    0
 49
0
 74
    0
 49
-6.35
 74
    0
  0
LTYPE
  5
3F
330
5
100
AcDbSymbolTableRecord
100
AcDbLinetypeTableRecord
  2
DIVIDETINY
 70
    0
  3
Divide (.15x) __..__..__..__..__..__..__..__.._
 72
   65
 73
    6
 40
4.7625
 49
1.905
 74
    0
 49
-0.9525
 74
    0
 49
0
 74
    0
 49
-0.9525
 74
    0
 49
0
 74
    0
 49
-0.9525
 74
    0
  0
LTYPE
  5
40
330
5
100
AcDbSymbolTableRecord
100
AcDbLinetypeTableRecord
  2
DIVIDE2
 70
    0
  3
Divide (.5x) __..__..__..__..__..__..__..__.._
 72
   65
 73
    6
 40
15.875
 49
6.35
 74
    0
 49
-3.175
 74
    0
 49
0
 74
    0
 49
-3.175
 74
    0
 49
0
 74
    0
 49
-3.175
 74
    0
  0
LTYPE
  5
41
330
5
100
AcDbSymbolTableRecord
100
AcDbLinetypeTableRecord
  2
DIVIDEX2
 70
    0
  3
Divide (2x) ________  .  .  ________  .  .  _
 72
   65
 73
    6
 40
63.5
 49
25.4
 74
    0
 49
-12.7
 74
    0
 49
0
 74
    0
 49
-12.7
 74
    0
 49
0
 74
    0
 49
-12.7
 74
    0
  0
LTYPE
  5
42
330
5
100
AcDbSymbolTableRecord
100
AcDbLinetypeTableRecord
  2
BORDER
 70
    0
  3
Border __ __ . __ __ . __ __ . __ __ . __ __ .
 72
   65
 73
    6
 40
44.45
 49
12.7
 74
    0
 49
-6.35
 74
    0
 49
12.7
 74
    0
 49
-6.35
 74
    0
 49
0
 74
    0
 49
-6.35
 74
    0
  0
LTYPE
  5
43
330
5
100
AcDbSymbolTableRecord
100
AcDbLinetypeTableRecord
  2
BORDERTINY
 70
    0
  3
Border (.15x) __.__.__.__.__.__.__.__.__.__.__.
 72
   65
 73
    6
 40
6.6675
 49
1.905
 74
    0
 49
-0.9525
 74
    0
 49
1.905
 74
    0
 49
-0.9525
 74
    0
 49
0
 74
    0
 49
-0.9525
 74
    0
  0
LTYPE
  5
44
330
5
100
AcDbSymbolTableRecord
100
AcDbLinetypeTableRecord
  2
BORDER2
 70
    0
  3
Border (.5x) __.__.__.__.__.__.__.__.__.__.__.
 72
   65
 73
    6
 40
22.225
 49
6.35
 74
    0
 49
-3.175
 74
    0
 49
6.35
 74
    0
 49
-3.175
 74
    0
 49
0
 74
    0
 49
-3.175
 74
    0
  0
LTYPE
  5
45
330
5
100
AcDbSymbolTableRecord
100
AcDbLinetypeTableRecord
  2
BORDERX2
 70
    0
  3
Border (2x) ____  ____  .  ____  ____  .  ___
 72
   65
 73
    6
 40
88.89999999999999
 49
25.4
 74
    0
 49
-12.7
 74
    0
 49
25.4
 74
    0
 49
-12.7
 74
    0
 49
0
 74
    0
 49
-12.7
 74
    0
  0
LTYPE
  5
46
330
5
100
AcDbSymbolTableRecord
100
AcDbLinetypeTableRecord
  2
CENTER
 70
    0
  3
Center ____ _ ____ _ ____ _ ____ _ ____ _ ____
 72
   65
 73
    4
 40
50.8
 49
31.75
 74
    0
 49
-6.35
 74
    0
 49
6.35
 74
    0
 49
-6.35
 74
    0
  0
LTYPE
  5
47
330
5
100
AcDbSymbolTableRecord
100
AcDbLinetypeTableRecord
  2
CENTERTINY
 70
    0
  3
Center (.15x) ___ _ ___ _ ___ _ ___ _ ___ _ ___
 72
   65
 73
    4
 40
7.62
 49
4.7625
 74
    0
 49
-0.9525
 74
    0
 49
0.9525
 74
    0
 49
-0.9525
 74
    0
  0
LTYPE
  5
48
330
5
100
AcDbSymbolTableRecord
100
AcDbLinetypeTableRecord
  2
CENTER2
 70
    0
  3
Center (.5x) ___ _ ___ _ ___ _ ___ _ ___ _ ___
 72
   65
 73
    4
 40
28.575
 49
19.05
 74
    0
 49
-3.175
 74
    0
 49
3.175
 74
    0
 49
-3.175
 74
    0
  0
LTYPE
  5
49
330
5
100
AcDbSymbolTableRecord
100
AcDbLinetypeTableRecord
  2
CENTERX2
 70
    0
  3
Center (2x) ________  __  ________  __  _____
 72
   65
 73
    4
 40
101.6
 49
63.5
 74
    0
 49
-12.7
 74
    0
 49
12.7
 74
    0
 49
-12.7
 74
    0
  0
ENDTAB
  0
TABLE
  2
LAYER
  5
2
330
0
100
AcDbSymbolTable
 70
    1
  0
LAYER
  5
10
330
2
100
AcDbSymbolTableRecord
100
AcDbLayerTableRecord
  2
0
 70
    0
 62
    7
  6
CONTINUOUS
370
   -3
390
F
  0
ENDTAB
  0
TABLE
  2
STYLE
  5
3
330
0
100
AcDbSymbolTable
 70
    3
  0
STYLE
  5
4A
330
2
100
AcDbSymbolTableRecord
100
AcDbTextStyleTableRecord
  2
Standard
 70
    0
 40
0
 41
1
 50
0
 71
    0
 42
1
  3
txt
  4

  0
ENDTAB
  0
TABLE
  2
VIEW
  5
6
330
0
100
AcDbSymbolTable
 70
    0
  0
ENDTAB
  0
TABLE
  2
UCS
  5
7
330
0
100
AcDbSymbolTable
 70
    0
  0
ENDTAB
  0
TABLE
  2
APPID
  5
9
330
0
100
AcDbSymbolTable
 70
    1
  0
APPID
  5
12
330
9
100
AcDbSymbolTableRecord
100
AcDbRegAppTableRecord
  2
ACAD
 70
    0
  0
APPID
  5
4B
330
9
100
AcDbSymbolTableRecord
100
AcDbRegAppTableRecord
  2
LibreCad
 70
    0
  0
ENDTAB
  0
TABLE
  2
DIMSTYLE
  5
A
330
0
100
AcDbSymbolTable
 70
    1
100
AcDbDimStyleTable
 71
    1
  0
DIMSTYLE
105
4C
330
A
100
AcDbSymbolTableRecord
100
AcDbDimStyleTableRecord
  2
Standard
 70
    0
 40
1
 41
3.302
 42
0
 43
0.38
 44
1
 45
0
 46
0
 47
0
 48
0
 49
1
140
3.5
141
0.09
142
0
143
25.4
144
1
145
0
146
1
147
1.524
148
0
 71
    0
 72
    0
 73
    1
 74
    1
 75
    0
 76
    0
 77
    0
 78
    1
 79
    0
170
    0
171
    2
172
    0
173
    0
174
    0
175
    0
176
    0
177
    0
178
    0
179
    0
271
    2
272
    4
273
    2
274
    2
275
    0
276
    0
277
    2
278
   44
279
    0
280
    0
281
    0
282
    0
283
    1
284
    0
285
    0
286
    0
288
    0
289
    3
340
STANDARD
341

371
   -2
372
   -2
  0
ENDTAB
  0
TABLE
  2
BLOCK_RECORD
  5
1
330
0
100
AcDbSymbolTable
 70
    2
  0
BLOCK_RECORD
  5
1F
330
1
100
AcDbSymbolTableRecord
100
AcDbBlockTableRecord
  2
*Model_Space
 70
    0
280
    1
281
    0
  0
BLOCK_RECORD
  5
1E
330
1
100
AcDbSymbolTableRecord
100
AcDbBlockTableRecord
  2
*Paper_Space
 70
    0
280
    1
281
    0
  0
ENDTAB
  0
ENDSEC
  0
SECTION
  2
BLOCKS
  0
BLOCK
  5
20
330
1F
100
AcDbEntity
  8
0
100
AcDbBlockBegin
  2
*Model_Space
 70
    0
 10
0
 20
0
 30
0
  3
*Model_Space
  1

  0
ENDBLK
  5
21
330
1F
100
AcDbEntity
  8
0
100
AcDbBlockEnd
  0
BLOCK
  5
1C
330
1B
100
AcDbEntity
  8
0
100
AcDbBlockBegin
  2
*Paper_Space
 70
    0
 10
0
 20
0
 30
0
  3
*Paper_Space
  1

  0
ENDBLK
  5
1D
330
1F
100
AcDbEntity
  8
0
100
AcDbBlockEnd
  0
ENDSEC
  0
SECTION
  2
ENTITIES
  0
CIRCLE
  5
4D
100
AcDbEntity
  8
0
  6
CONTINUOUS
 62
    7
370
   25
100
AcDbCircle
 10
245.2340728753
 20
-12.6250020346
 40
1.099999999942384
  0
CIRCLE
  5
4E
100
AcDbEntity
  8
0
  6
CONTINUOUS
 62
    7
370
   25
100
AcDbCircle
 10
245.2340728752
 20
-82.6249979654
 40
1.10000000001304
  0
CIRCLE
  5
4F
100
AcDbEntity
  8
0
  6
CONTINUOUS
 62
    7
370
   25
100
AcDbCircle
 10
-7.1090728753
 20
-82.6249979654
 40
1.099999999991116
  0
CIRCLE
  5
50
100
AcDbEntity
  8
0
  6
CONTINUOUS
 62
    7
370
   25
100
AcDbCircle
 10
-7.1090728753
 20
-12.6250020346
 40
1.099999999966918
  0
LINE
  5
51
100
AcDbEntity
  8
0
  6
CONTINUOUS
 62
    7
370
   25
100
AcDbLine
 10
159.6875
 20
-60.175
 11
159.6875
 21
-73.175
  0
LINE
  5
52
100
AcDbEntity
  8
0
  6
CONTINUOUS
 62
    7
370
   25
100
AcDbLine
 10
160.1875
 20
-73.675
 11
173.1875
 21
-73.675
  0
LINE
  5
53
100
AcDbEntity
  8
0
  6
CONTINUOUS
 62
    7
370
   25
100
AcDbLine
 10
173.6875
 20
-73.175
 11
173.6875
 21
-60.175
  0
LINE
  5
54
100
AcDbEntity
  8
0
  6
CONTINUOUS
 62
    7
370
   25
100
AcDbLine
 10
173.1875
 20
-59.675
 11
160.1875
 21
-59.675
  0
LINE
  5
55
100
AcDbEntity
  8
0
  6
CONTINUOUS
 62
    7
370
   25
100
AcDbLine
 10
121.5875
 20
-60.175
 11
121.5875
 21
-73.175
  0
LINE
  5
56
100
AcDbEntity
  8
0
  6
CONTINUOUS
 62
    7
370
   25
100
AcDbLine
 10
122.0875
 20
-73.675
 11
135.0875
 21
-73.675
  0
LINE
  5
57
100
AcDbEntity
  8
0
  6
CONTINUOUS
 62
    7
370
   25
100
AcDbLine
 10
135.5875
 20
-73.175
 11
135.5875
 21
-60.175
  0
LINE
  5
58
100
AcDbEntity
  8
0
  6
CONTINUOUS
 62
    7
370
   25
100
AcDbLine
 10
135.0875
 20
-59.675
 11
122.0875
 21
-59.675
  0
LINE
  5
59
100
AcDbEntity
  8
0
  6
CONTINUOUS
 62
    7
370
   25
100
AcDbLine
 10
83.4875
 20
-60.175
 11
83.4875
 21
-73.175
  0
LINE
  5
5A
100
AcDbEntity
  8
0
  6
CONTINUOUS
 62
    7
370
   25
100
AcDbLine
 10
83.9875
 20
-73.675
 11
96.9875
 21
-73.675
  0
LINE
  5
5B
100
AcDbEntity
  8
0
  6
CONTINUOUS
 62
    7
370
   25
100
AcDbLine
 10
97.4875
 20
-73.175
 11
97.4875
 21
-60.175
  0
LINE
  5
5C
100
AcDbEntity
  8
0
  6
CONTINUOUS
 62
    7
370
   25
100
AcDbLine
 10
96.9875
 20
-59.675
 11
83.9875
 21
-59.675
  0
LINE
  5
5D
100
AcDbEntity
  8
0
  6
CONTINUOUS
 62
    7
370
   25
100
AcDbLine
 10
135.875
 20
-3.025
 11
135.875
 21
-16.025
  0
LINE
  5
5E
100
AcDbEntity
  8
0
  6
CONTINUOUS
 62
    7
370
   25
100
AcDbLine
 10
136.375
 20
-16.525
 11
149.375
 21
-16.525
  0
LINE
  5
5F
100
AcDbEntity
  8
0
  6
CONTINUOUS
 62
    7
370
   25
100
AcDbLine
 10
149.875
 20
-16.025
 11
149.875
 21
-3.025
  0
LINE
  5
60
100
AcDbEntity
  8
0
  6
CONTINUOUS
 62
    7
370
   25
100
AcDbLine
 10
149.375
 20
-2.525
 11
136.375
 21
-2.525
  0
LINE
  5
61
100
AcDbEntity
  8
0
  6
CONTINUOUS
 62
    7
370
   25
100
AcDbLine
 10
-6.7732864376
 20
-67.9681437159
 11
-6.9375
 21
-67.9681437159
  0
LINE
  5
62
100
AcDbEntity
  8
0
  6
CONTINUOUS
 62
    7
370
   25
100
AcDbLine
 10
-7.9375
 20
-68.9681437159
 11
-7.9375
 21
-71.5539301535
  0
LINE
  5
63
100
AcDbEntity
  8
0
  6
CONTINUOUS
 62
    7
370
   25
100
AcDbLine
 10
-7.6446067812
 20
-72.2610369347
 11
-5.4019660941
 21
-74.50367762179999
  0
LINE
  5
64
100
AcDbEntity
  8
0
  6
CONTINUOUS
 62
    7
370
   25
100
AcDbLine
 10
-5.1090728753
 20
-75.21078440300001
 11
-5.1090728753
 21
-90.03921152780001
  0
LINE
  5
65
100
AcDbEntity
  8
0
  6
CONTINUOUS
 62
    7
370
   25
100
AcDbLine
 10
-5.4019660941
 20
-90.7463183089
 11
-7.6446067812
 21
-92.9889589961
  0
LINE
  5
66
100
AcDbEntity
  8
0
  6
CONTINUOUS
 62
    7
370
   25
100
AcDbLine
 10
-7.9375
 20
-93.6960657772
 11
-7.9375
 21
-96.2818522149
  0
LINE
  5
67
100
AcDbEntity
  8
0
  6
CONTINUOUS
 62
    7
370
   25
100
AcDbLine
 10
-6.9375
 20
-97.2818522149
 11
-6.7732864376
 21
-97.2818522149
  0
LINE
  5
68
100
AcDbEntity
  8
0
  6
CONTINUOUS
 62
    7
370
   25
100
AcDbLine
 10
-5.7732864376
 20
-96.2818522149
 11
-5.7732864376
 21
-93.6531725584
  0
LINE
  5
69
100
AcDbEntity
  8
0
  6
CONTINUOUS
 62
    7
370
   25
100
AcDbLine
 10
-5.4803932188
 20
-92.9460657772
 11
-3.9019660941
 21
-91.36763865250001
  0
LINE
  5
6A
100
AcDbEntity
  8
0
  6
CONTINUOUS
 62
    7
370
   25
100
AcDbLine
 10
-3.6090728753
 20
-90.66053187129999
 11
-3.6090728753
 21
-74.5894640594
  0
LINE
  5
6B
100
AcDbEntity
  8
0
  6
CONTINUOUS
 62
    7
370
   25
100
AcDbLine
 10
-3.9019660941
 20
-73.88235727830001
 11
-5.4803932188
 21
-72.3039301535
  0
LINE
  5
6C
100
AcDbEntity
  8
0
  6
CONTINUOUS
 62
    7
370
   25
100
AcDbLine
 10
-5.7732864376
 20
-71.59682337229999
 11
-5.7732864376
 21
-68.9681437159
  0
LINE
  5
6D
100
AcDbEntity
  8
0
  6
CONTINUOUS
 62
    7
370
   25
100
AcDbLine
 10
244.8982864376
 20
-27.2818562841
 11
245.0625
 21
-27.2818562841
  0
LINE
  5
6E
100
AcDbEntity
  8
0
  6
CONTINUOUS
 62
    7
370
   25
100
AcDbLine
 10
246.0625
 20
-26.2818562841
 11
246.0625
 21
-23.6960698465
  0
LINE
  5
6F
100
AcDbEntity
  8
0
  6
CONTINUOUS
 62
    7
370
   25
100
AcDbLine
 10
245.7696067812
 20
-22.9889630653
 11
243.5269660941
 21
-20.7463223782
  0
LINE
  5
70
100
AcDbEntity
  8
0
  6
CONTINUOUS
 62
    7
370
   25
100
AcDbLine
 10
243.2340728753
 20
-20.039215597
 11
243.2340728753
 21
-5.2107884722
  0
LINE
  5
71
100
AcDbEntity
  8
0
  6
CONTINUOUS
 62
    7
370
   25
100
AcDbLine
 10
243.5269660941
 20
-4.5036816911
 11
245.7696067812
 21
-2.2610410039
  0
LINE
  5
72
100
AcDbEntity
  8
0
  6
CONTINUOUS
 62
    7
370
   25
100
AcDbLine
 10
246.0625
 20
-1.5539342228
 11
246.0625
 21
1.0318522149
  0
LINE
  5
73
100
AcDbEntity
  8
0
  6
CONTINUOUS
 62
    7
370
   25
100
AcDbLine
 10
245.0625
 20
2.0318522149
 11
244.8982864376
 21
2.0318522149
  0
LINE
  5
74
100
AcDbEntity
  8
0
  6
CONTINUOUS
 62
    7
370
   25
100
AcDbLine
 10
243.8982864376
 20
1.0318522149
 11
243.8982864376
 21
-1.5968274416
  0
LINE
  5
75
100
AcDbEntity
  8
0
  6
CONTINUOUS
 62
    7
370
   25
100
AcDbLine
 10
243.6053932188
 20
-2.3039342228
 11
242.0269660941
 21
-3.8823613475
  0
LINE
  5
76
100
AcDbEntity
  8
0
  6
CONTINUOUS
 62
    7
370
   25
100
AcDbLine
 10
241.7340728753
 20
-4.5894681287
 11
241.7340728753
 21
-20.6605359406
  0
LINE
  5
77
100
AcDbEntity
  8
0
  6
CONTINUOUS
 62
    7
370
   25
100
AcDbLine
 10
242.0269660941
 20
-21.3676427217
 11
243.6053932188
 21
-22.9460698465
  0
LINE
  5
78
100
AcDbEntity
  8
0
  6
CONTINUOUS
 62
    7
370
   25
100
AcDbLine
 10
243.8982864376
 20
-23.6531766277
 11
243.8982864376
 21
-26.2818562841
  0
LINE
  5
79
100
AcDbEntity
  8
0
  6
CONTINUOUS
 62
    7
370
   25
100
AcDbLine
 10
216.8375
 20
-79.22499999999999
 11
216.8375
 21
-92.22499999999999
  0
LINE
  5
7A
100
AcDbEntity
  8
0
  6
CONTINUOUS
 62
    7
370
   25
100
AcDbLine
 10
217.3375
 20
-92.72499999999999
 11
230.3375
 21
-92.72499999999999
  0
LINE
  5
7B
100
AcDbEntity
  8
0
  6
CONTINUOUS
 62
    7
370
   25
100
AcDbLine
 10
230.8375
 20
-92.22499999999999
 11
230.8375
 21
-79.22499999999999
  0
LINE
  5
7C
100
AcDbEntity
  8
0
  6
CONTINUOUS
 62
    7
370
   25
100
AcDbLine
 10
230.3375
 20
-78.72499999999999
 11
217.3375
 21
-78.72499999999999
  0
LINE
  5
7D
100
AcDbEntity
  8
0
  6
CONTINUOUS
 62
    7
370
   25
100
AcDbLine
 10
169.2125
 20
-79.22499999999999
 11
169.2125
 21
-92.22499999999999
  0
LINE
  5
7E
100
AcDbEntity
  8
0
  6
CONTINUOUS
 62
    7
370
   25
100
AcDbLine
 10
169.7125
 20
-92.72499999999999
 11
182.7125
 21
-92.72499999999999
  0
LINE
  5
7F
100
AcDbEntity
  8
0
  6
CONTINUOUS
 62
    7
370
   25
100
AcDbLine
 10
183.2125
 20
-92.22499999999999
 11
183.2125
 21
-79.22499999999999
  0
LINE
  5
80
100
AcDbEntity
  8
0
  6
CONTINUOUS
 62
    7
370
   25
100
AcDbLine
 10
182.7125
 20
-78.72499999999999
 11
169.7125
 21
-78.72499999999999
  0
LINE
  5
81
100
AcDbEntity
  8
0
  6
CONTINUOUS
 62
    7
370
   25
100
AcDbLine
 10
133.49375
 20
-79.22499999999999
 11
133.49375
 21
-92.22499999999999
  0
LINE
  5
82
100
AcDbEntity
  8
0
  6
CONTINUOUS
 62
    7
370
   25
100
AcDbLine
 10
133.99375
 20
-92.72499999999999
 11
146.99375
 21
-92.72499999999999
  0
LINE
  5
83
100
AcDbEntity
  8
0
  6
CONTINUOUS
 62
    7
370
   25
100
AcDbLine
 10
147.49375
 20
-92.22499999999999
 11
147.49375
 21
-79.22499999999999
  0
LINE
  5
84
100
AcDbEntity
  8
0
  6
CONTINUOUS
 62
    7
370
   25
100
AcDbLine
 10
146.99375
 20
-78.72499999999999
 11
133.99375
 21
-78.72499999999999
  0
LINE
  5
85
100
AcDbEntity
  8
0
  6
CONTINUOUS
 62
    7
370
   25
100
AcDbLine
 10
155.43175
 20
-78.72499999999999
 11
149.43175
 21
-78.72499999999999
  0
LINE
  5
86
100
AcDbEntity
  8
0
  6
CONTINUOUS
 62
    7
370
   25
100
AcDbLine
 10
148.93175
 20
-79.22499999999999
 11
148.93175
 21
-94.22499999999999
  0
LINE
  5
87
100
AcDbEntity
  8
0
  6
CONTINUOUS
 62
    7
370
   25
100
AcDbLine
 10
149.43175
 20
-94.72499999999999
 11
155.43175
 21
-94.72499999999999
  0
LINE
  5
88
100
AcDbEntity
  8
0
  6
CONTINUOUS
 62
    7
370
   25
100
AcDbLine
 10
155.93175
 20
-94.22499999999999
 11
155.93175
 21
-79.22499999999999
  0
LINE
  5
89
100
AcDbEntity
  8
0
  6
CONTINUOUS
 62
    7
370
   25
100
AcDbLine
 10
54.9125
 20
-79.22499999999999
 11
54.9125
 21
-92.22499999999999
  0
LINE
  5
8A
100
AcDbEntity
  8
0
  6
CONTINUOUS
 62
    7
370
   25
100
AcDbLine
 10
55.4125
 20
-92.72499999999999
 11
68.41249999999999
 21
-92.72499999999999
  0
LINE
  5
8B
100
AcDbEntity
  8
0
  6
CONTINUOUS
 62
    7
370
   25
100
AcDbLine
 10
68.91249999999999
 20
-92.22499999999999
 11
68.91249999999999
 21
-79.22499999999999
  0
LINE
  5
8C
100
AcDbEntity
  8
0
  6
CONTINUOUS
 62
    7
370
   25
100
AcDbLine
 10
68.41249999999999
 20
-78.72499999999999
 11
55.4125
 21
-78.72499999999999
  0
LINE
  5
8D
100
AcDbEntity
  8
0
  6
CONTINUOUS
 62
    7
370
   25
100
AcDbLine
 10
7.2875
 20
-79.22499999999999
 11
7.2875
 21
-92.22499999999999
  0
LINE
  5
8E
100
AcDbEntity
  8
0
  6
CONTINUOUS
 62
    7
370
   25
100
AcDbLine
 10
7.7875
 20
-92.72499999999999
 11
20.7875
 21
-92.72499999999999
  0
LINE
  5
8F
100
AcDbEntity
  8
0
  6
CONTINUOUS
 62
    7
370
   25
100
AcDbLine
 10
21.2875
 20
-92.22499999999999
 11
21.2875
 21
-79.22499999999999
  0
LINE
  5
90
100
AcDbEntity
  8
0
  6
CONTINUOUS
 62
    7
370
   25
100
AcDbLine
 10
20.7875
 20
-78.72499999999999
 11
7.7875
 21
-78.72499999999999
  0
LINE
  5
91
100
AcDbEntity
  8
0
  6
CONTINUOUS
 62
    7
370
   25
100
AcDbLine
 10
77.43075
 20
-79.22499999999999
 11
77.43075
 21
-94.22499999999999
  0
LINE
  5
92
100
AcDbEntity
  8
0
  6
CONTINUOUS
 62
    7
370
   25
100
AcDbLine
 10
77.93075
 20
-94.72499999999999
 11
83.93075
 21
-94.72499999999999
  0
LINE
  5
93
100
AcDbEntity
  8
0
  6
CONTINUOUS
 62
    7
370
   25
100
AcDbLine
 10
84.43075
 20
-94.22499999999999
 11
84.43075
 21
-79.22499999999999
  0
LINE
  5
94
100
AcDbEntity
  8
0
  6
CONTINUOUS
 62
    7
370
   25
100
AcDbLine
 10
83.93075
 20
-78.72499999999999
 11
77.93075
 21
-78.72499999999999
  0
LINE
  5
95
100
AcDbEntity
  8
0
  6
CONTINUOUS
 62
    7
370
   25
100
AcDbLine
 10
197.7875
 20
-60.175
 11
197.7875
 21
-73.175
  0
LINE
  5
96
100
AcDbEntity
  8
0
  6
CONTINUOUS
 62
    7
370
   25
100
AcDbLine
 10
198.2875
 20
-73.675
 11
200.75575
 21
-73.675
  0
LINE
  5
97
100
AcDbEntity
  8
0
  6
CONTINUOUS
 62
    7
370
   25
100
AcDbLine
 10
201.25575
 20
-74.175
 11
201.25575
 21
-75.175
  0
LINE
  5
98
100
AcDbEntity
  8
0
  6
CONTINUOUS
 62
    7
370
   25
100
AcDbLine
 10
201.75575
 20
-75.675
 11
207.75575
 21
-75.675
  0
LINE
  5
99
100
AcDbEntity
  8
0
  6
CONTINUOUS
 62
    7
370
   25
100
AcDbLine
 10
208.25575
 20
-75.175
 11
208.25575
 21
-74.175
  0
LINE
  5
9A
100
AcDbEntity
  8
0
  6
CONTINUOUS
 62
    7
370
   25
100
AcDbLine
 10
208.75575
 20
-73.675
 11
224.63175
 21
-73.675
  0
LINE
  5
9B
100
AcDbEntity
  8
0
  6
CONTINUOUS
 62
    7
370
   25
100
AcDbLine
 10
225.13175
 20
-74.175
 11
225.13175
 21
-75.175
  0
LINE
  5
9C
100
AcDbEntity
  8
0
  6
CONTINUOUS
 62
    7
370
   25
100
AcDbLine
 10
225.63175
 20
-75.675
 11
231.63175
 21
-75.675
  0
LINE
  5
9D
100
AcDbEntity
  8
0
  6
CONTINUOUS
 62
    7
370
   25
100
AcDbLine
 10
232.13175
 20
-75.175
 11
232.13175
 21
-74.175
  0
LINE
  5
9E
100
AcDbEntity
  8
0
  6
CONTINUOUS
 62
    7
370
   25
100
AcDbLine
 10
232.63175
 20
-73.675
 11
232.71875
 21
-73.675
  0
LINE
  5
9F
100
AcDbEntity
  8
0
  6
CONTINUOUS
 62
    7
370
   25
100
AcDbLine
 10
233.21875
 20
-73.175
 11
233.21875
 21
-60.175
  0
LINE
  5
A0
100
AcDbEntity
  8
0
  6
CONTINUOUS
 62
    7
370
   25
100
AcDbLine
 10
232.71875
 20
-59.675
 11
198.2875
 21
-59.675
  0
LINE
  5
A1
100
AcDbEntity
  8
0
  6
CONTINUOUS
 62
    7
370
   25
100
AcDbLine
 10
214.45625
 20
-41.125
 11
214.45625
 21
-54.125
  0
LINE
  5
A2
100
AcDbEntity
  8
0
  6
CONTINUOUS
 62
    7
370
   25
100
AcDbLine
 10
214.95625
 20
-54.625
 11
227.95625
 21
-54.625
  0
LINE
  5
A3
100
AcDbEntity
  8
0
  6
CONTINUOUS
 62
    7
370
   25
100
AcDbLine
 10
228.45625
 20
-54.125
 11
228.45625
 21
-41.125
  0
LINE
  5
A4
100
AcDbEntity
  8
0
  6
CONTINUOUS
 62
    7
370
   25
100
AcDbLine
 10
227.95625
 20
-40.625
 11
214.95625
 21
-40.625
  0
LINE
  5
A5
100
AcDbEntity
  8
0
  6
CONTINUOUS
 62
    7
370
   25
100
AcDbLine
 10
169.2125
 20
-41.125
 11
169.2125
 21
-54.125
  0
LINE
  5
A6
100
AcDbEntity
  8
0
  6
CONTINUOUS
 62
    7
370
   25
100
AcDbLine
 10
169.7125
 20
-54.625
 11
182.7125
 21
-54.625
  0
LINE
  5
A7
100
AcDbEntity
  8
0
  6
CONTINUOUS
 62
    7
370
   25
100
AcDbLine
 10
183.2125
 20
-54.125
 11
183.2125
 21
-41.125
  0
LINE
  5
A8
100
AcDbEntity
  8
0
  6
CONTINUOUS
 62
    7
370
   25
100
AcDbLine
 10
182.7125
 20
-40.625
 11
169.7125
 21
-40.625
  0
LINE
  5
A9
100
AcDbEntity
  8
0
  6
CONTINUOUS
 62
    7
370
   25
100
AcDbLine
 10
131.1125
 20
-41.125
 11
131.1125
 21
-54.125
  0
LINE
  5
AA
100
AcDbEntity
  8
0
  6
CONTINUOUS
 62
    7
370
   25
100
AcDbLine
 10
131.6125
 20
-54.625
 11
144.6125
 21
-54.625
  0
LINE
  5
AB
100
AcDbEntity
  8
0
  6
CONTINUOUS
 62
    7
370
   25
100
AcDbLine
 10
145.1125
 20
-54.125
 11
145.1125
 21
-41.125
  0
LINE
  5
AC
100
AcDbEntity
  8
0
  6
CONTINUOUS
 62
    7
370
   25
100
AcDbLine
 10
144.6125
 20
-40.625
 11
131.6125
 21
-40.625
  0
LINE
  5
AD
100
AcDbEntity
  8
0
  6
CONTINUOUS
 62
    7
370
   25
100
AcDbLine
 10
93.0125
 20
-41.125
 11
93.0125
 21
-54.125
  0
LINE
  5
AE
100
AcDbEntity
  8
0
  6
CONTINUOUS
 62
    7
370
   25
100
AcDbLine
 10
93.5125
 20
-54.625
 11
106.5125
 21
-54.625
  0
LINE
  5
AF
100
AcDbEntity
  8
0
  6
CONTINUOUS
 62
    7
370
   25
100
AcDbLine
 10
107.0125
 20
-54.125
 11
107.0125
 21
-41.125
  0
LINE
  5
B0
100
AcDbEntity
  8
0
  6
CONTINUOUS
 62
    7
370
   25
100
AcDbLine
 10
106.5125
 20
-40.625
 11
93.5125
 21
-40.625
  0
LINE
  5
B1
100
AcDbEntity
  8
0
  6
CONTINUOUS
 62
    7
370
   25
100
AcDbLine
 10
54.9125
 20
-41.125
 11
54.9125
 21
-54.125
  0
LINE
  5
B2
100
AcDbEntity
  8
0
  6
CONTINUOUS
 62
    7
370
   25
100
AcDbLine
 10
55.4125
 20
-54.625
 11
68.41249999999999
 21
-54.625
  0
LINE
  5
B3
100
AcDbEntity
  8
0
  6
CONTINUOUS
 62
    7
370
   25
100
AcDbLine
 10
68.91249999999999
 20
-54.125
 11
68.91249999999999
 21
-41.125
  0
LINE
  5
B4
100
AcDbEntity
  8
0
  6
CONTINUOUS
 62
    7
370
   25
100
AcDbLine
 10
68.41249999999999
 20
-40.625
 11
55.4125
 21
-40.625
  0
LINE
  5
B5
100
AcDbEntity
  8
0
  6
CONTINUOUS
 62
    7
370
   25
100
AcDbLine
 10
4.90875
 20
-41.125
 11
4.90875
 21
-54.125
  0
LINE
  5
B6
100
AcDbEntity
  8
0
  6
CONTINUOUS
 62
    7
370
   25
100
AcDbLine
 10
5.40875
 20
-54.625
 11
23.16875
 21
-54.625
  0
LINE
  5
B7
100
AcDbEntity
  8
0
  6
CONTINUOUS
 62
    7
370
   25
100
AcDbLine
 10
23.66875
 20
-54.125
 11
23.66875
 21
-41.125
  0
LINE
  5
B8
100
AcDbEntity
  8
0
  6
CONTINUOUS
 62
    7
370
   25
100
AcDbLine
 10
23.16875
 20
-40.625
 11
5.40875
 21
-40.625
  0
LINE
  5
B9
100
AcDbEntity
  8
0
  6
CONTINUOUS
 62
    7
370
   25
100
AcDbLine
 10
202.55
 20
-22.075
 11
202.55
 21
-35.075
  0
LINE
  5
BA
100
AcDbEntity
  8
0
  6
CONTINUOUS
 62
    7
370
   25
100
AcDbLine
 10
203.05
 20
-35.575
 11
216.05
 21
-35.575
  0
LINE
  5
BB
100
AcDbEntity
  8
0
  6
CONTINUOUS
 62
    7
370
   25
100
AcDbLine
 10
216.55
 20
-35.075
 11
216.55
 21
-22.075
  0
LINE
  5
BC
100
AcDbEntity
  8
0
  6
CONTINUOUS
 62
    7
370
   25
100
AcDbLine
 10
216.05
 20
-21.575
 11
203.05
 21
-21.575
  0
LINE
  5
BD
100
AcDbEntity
  8
0
  6
CONTINUOUS
 62
    7
370
   25
100
AcDbLine
 10
164.45
 20
-22.075
 11
164.45
 21
-35.075
  0
LINE
  5
BE
100
AcDbEntity
  8
0
  6
CONTINUOUS
 62
    7
370
   25
100
AcDbLine
 10
164.95
 20
-35.575
 11
177.95
 21
-35.575
  0
LINE
  5
BF
100
AcDbEntity
  8
0
  6
CONTINUOUS
 62
    7
370
   25
100
AcDbLine
 10
178.45
 20
-35.075
 11
178.45
 21
-22.075
  0
LINE
  5
C0
100
AcDbEntity
  8
0
  6
CONTINUOUS
 62
    7
370
   25
100
AcDbLine
 10
177.95
 20
-21.575
 11
164.95
 21
-21.575
  0
LINE
  5
C1
100
AcDbEntity
  8
0
  6
CONTINUOUS
 62
    7
370
   25
100
AcDbLine
 10
126.35
 20
-22.075
 11
126.35
 21
-35.075
  0
LINE
  5
C2
100
AcDbEntity
  8
0
  6
CONTINUOUS
 62
    7
370
   25
100
AcDbLine
 10
126.85
 20
-35.575
 11
139.85
 21
-35.575
  0
LINE
  5
C3
100
AcDbEntity
  8
0
  6
CONTINUOUS
 62
    7
370
   25
100
AcDbLine
 10
140.35
 20
-35.075
 11
140.35
 21
-22.075
  0
LINE
  5
C4
100
AcDbEntity
  8
0
  6
CONTINUOUS
 62
    7
370
   25
100
AcDbLine
 10
139.85
 20
-21.575
 11
126.85
 21
-21.575
  0
LINE
  5
C5
100
AcDbEntity
  8
0
  6
CONTINUOUS
 62
    7
370
   25
100
AcDbLine
 10
88.25
 20
-22.075
 11
88.25
 21
-35.075
  0
LINE
  5
C6
100
AcDbEntity
  8
0
  6
CONTINUOUS
 62
    7
370
   25
100
AcDbLine
 10
88.75
 20
-35.575
 11
101.75
 21
-35.575
  0
LINE
  5
C7
100
AcDbEntity
  8
0
  6
CONTINUOUS
 62
    7
370
   25
100
AcDbLine
 10
102.25
 20
-35.075
 11
102.25
 21
-22.075
  0
LINE
  5
C8
100
AcDbEntity
  8
0
  6
CONTINUOUS
 62
    7
370
   25
100
AcDbLine
 10
101.75
 20
-21.575
 11
88.75
 21
-21.575
  0
LINE
  5
C9
100
AcDbEntity
  8
0
  6
CONTINUOUS
 62
    7
370
   25
100
AcDbLine
 10
50.15
 20
-22.075
 11
50.15
 21
-35.075
  0
LINE
  5
CA
100
AcDbEntity
  8
0
  6
CONTINUOUS
 62
    7
370
   25
100
AcDbLine
 10
50.65
 20
-35.575
 11
63.65
 21
-35.575
  0
LINE
  5
CB
100
AcDbEntity
  8
0
  6
CONTINUOUS
 62
    7
370
   25
100
AcDbLine
 10
64.15000000000001
 20
-35.075
 11
64.15000000000001
 21
-22.075
  0
LINE
  5
CC
100
AcDbEntity
  8
0
  6
CONTINUOUS
 62
    7
370
   25
100
AcDbLine
 10
63.65
 20
-21.575
 11
50.65
 21
-21.575
  0
LINE
  5
CD
100
AcDbEntity
  8
0
  6
CONTINUOUS
 62
    7
370
   25
100
AcDbLine
 10
7.2875
 20
-22.075
 11
7.2875
 21
-35.075
  0
LINE
  5
CE
100
AcDbEntity
  8
0
  6
CONTINUOUS
 62
    7
370
   25
100
AcDbLine
 10
7.7875
 20
-35.575
 11
20.7875
 21
-35.575
  0
LINE
  5
CF
100
AcDbEntity
  8
0
  6
CONTINUOUS
 62
    7
370
   25
100
AcDbLine
 10
21.2875
 20
-35.075
 11
21.2875
 21
-22.075
  0
LINE
  5
D0
100
AcDbEntity
  8
0
  6
CONTINUOUS
 62
    7
370
   25
100
AcDbLine
 10
20.7875
 20
-21.575
 11
7.7875
 21
-21.575
  0
LINE
  5
D1
100
AcDbEntity
  8
0
  6
CONTINUOUS
 62
    7
370
   25
100
AcDbLine
 10
97.77500000000001
 20
-3.025
 11
97.77500000000001
 21
-16.025
  0
LINE
  5
D2
100
AcDbEntity
  8
0
  6
CONTINUOUS
 62
    7
370
   25
100
AcDbLine
 10
98.27500000000001
 20
-16.525
 11
111.275
 21
-16.525
  0
LINE
  5
D3
100
AcDbEntity
  8
0
  6
CONTINUOUS
 62
    7
370
   25
100
AcDbLine
 10
111.775
 20
-16.025
 11
111.775
 21
-3.025
  0
LINE
  5
D4
100
AcDbEntity
  8
0
  6
CONTINUOUS
 62
    7
370
   25
100
AcDbLine
 10
111.275
 20
-2.525
 11
98.27500000000001
 21
-2.525
  0
LINE
  5
D5
100
AcDbEntity
  8
0
  6
CONTINUOUS
 62
    7
370
   25
100
AcDbLine
 10
59.675
 20
-3.025
 11
59.675
 21
-16.025
  0
LINE
  5
D6
100
AcDbEntity
  8
0
  6
CONTINUOUS
 62
    7
370
   25
100
AcDbLine
 10
60.175
 20
-16.525
 11
73.175
 21
-16.525
  0
LINE
  5
D7
100
AcDbEntity
  8
0
  6
CONTINUOUS
 62
    7
370
   25
100
AcDbLine
 10
73.675
 20
-16.025
 11
73.675
 21
-3.025
  0
LINE
  5
D8
100
AcDbEntity
  8
0
  6
CONTINUOUS
 62
    7
370
   25
100
AcDbLine
 10
73.175
 20
-2.525
 11
60.175
 21
-2.525
  0
LINE
  5
D9
100
AcDbEntity
  8
0
  6
CONTINUOUS
 62
    7
370
   25
100
AcDbLine
 10
21.575
 20
-3.025
 11
21.575
 21
-16.025
  0
LINE
  5
DA
100
AcDbEntity
  8
0
  6
CONTINUOUS
 62
    7
370
   25
100
AcDbLine
 10
22.075
 20
-16.525
 11
35.075
 21
-16.525
  0
LINE
  5
DB
100
AcDbEntity
  8
0
  6
CONTINUOUS
 62
    7
370
   25
100
AcDbLine
 10
35.575
 20
-16.025
 11
35.575
 21
-3.025
  0
LINE
  5
DC
100
AcDbEntity
  8
0
  6
CONTINUOUS
 62
    7
370
   25
100
AcDbLine
 10
35.075
 20
-2.525
 11
22.075
 21
-2.525
  0
LINE
  5
DD
100
AcDbEntity
  8
0
  6
CONTINUOUS
 62
    7
370
   25
100
AcDbLine
 10
248.0625
 20
-27.7536796564
 11
248.0625
 21
-22.8676427217
  0
LINE
  5
DE
100
AcDbEntity
  8
0
  6
CONTINUOUS
 62
    7
370
   25
100
AcDbLine
 10
243.8982864376
 20
-32.3321067812
 11
247.7696067812
 21
-28.4607864376
  0
LINE
  5
DF
100
AcDbEntity
  8
0
  6
CONTINUOUS
 62
    7
370
   25
100
AcDbLine
 10
243.6053932188
 20
-62.2107864376
 11
243.6053932188
 21
-33.0392135624
  0
LINE
  5
E0
100
AcDbEntity
  8
0
  6
CONTINUOUS
 62
    7
370
   25
100
AcDbLine
 10
247.7696067812
 20
-66.78921356239999
 11
243.8982864376
 21
-62.9178932188
  0
LINE
  5
E1
100
AcDbEntity
  8
0
  6
CONTINUOUS
 62
    7
370
   25
100
AcDbLine
 10
248.0625
 20
-72.38235727830001
 11
248.0625
 21
-67.4963203436
  0
LINE
  5
E2
100
AcDbEntity
  8
0
  6
CONTINUOUS
 62
    7
370
   25
100
AcDbLine
 10
245.5269660941
 20
-75.3321047466
 11
247.7696067812
 21
-73.0894640594
  0
LINE
  5
E3
100
AcDbEntity
  8
0
  6
CONTINUOUS
 62
    7
370
   25
100
AcDbLine
 10
245.2340728752
 20
-79.7965708406
 11
245.2340728752
 21
-76.03921152780001
  0
LINE
  5
E4
100
AcDbEntity
  8
0
  6
CONTINUOUS
 62
    7
370
   25
100
AcDbLine
 10
245.2340728752
 20
-89.21078440300001
 11
245.2340728752
 21
-85.4534250901
  0
LINE
  5
E5
100
AcDbEntity
  8
0
  6
CONTINUOUS
 62
    7
370
   25
100
AcDbLine
 10
247.7696067812
 20
-92.16053187129999
 11
245.5269660941
 21
-89.9178911842
  0
LINE
  5
E6
100
AcDbEntity
  8
0
  6
CONTINUOUS
 62
    7
370
   25
100
AcDbLine
 10
248.0625
 20
-96.625
 11
248.0625
 21
-92.86763865250001
  0
LINE
  5
E7
100
AcDbEntity
  8
0
  6
CONTINUOUS
 62
    7
370
   25
100
AcDbLine
 10
-6.9375
 20
-99.625
 11
245.0625
 21
-99.625
  0
LINE
  5
E8
100
AcDbEntity
  8
0
  6
CONTINUOUS
 62
    7
370
   25
100
AcDbLine
 10
-9.9375
 20
-92.86763865250001
 11
-9.9375
 21
-96.625
  0
LINE
  5
E9
100
AcDbEntity
  8
0
  6
CONTINUOUS
 62
    7
370
   25
100
AcDbLine
 10
-7.4019660941
 20
-89.9178911842
 11
-9.6446067812
 21
-92.16053187129999
  0
LINE
  5
EA
100
AcDbEntity
  8
0
  6
CONTINUOUS
 62
    7
370
   25
100
AcDbLine
 10
-7.1090728753
 20
-85.4534250901
 11
-7.1090728753
 21
-89.21078440300001
  0
LINE
  5
EB
100
AcDbEntity
  8
0
  6
CONTINUOUS
 62
    7
370
   25
100
AcDbLine
 10
-7.1090728753
 20
-76.03921152780001
 11
-7.1090728753
 21
-79.7965708406
  0
LINE
  5
EC
100
AcDbEntity
  8
0
  6
CONTINUOUS
 62
    7
370
   25
100
AcDbLine
 10
-9.6446067812
 20
-73.0894640594
 11
-7.4019660941
 21
-75.3321047466
  0
LINE
  5
ED
100
AcDbEntity
  8
0
  6
CONTINUOUS
 62
    7
370
   25
100
AcDbLine
 10
-9.9375
 20
-67.4963203436
 11
-9.9375
 21
-72.38235727830001
  0
LINE
  5
EE
100
AcDbEntity
  8
0
  6
CONTINUOUS
 62
    7
370
   25
100
AcDbLine
 10
-5.7732864376
 20
-62.9178932188
 11
-9.6446067812
 21
-66.78921356239999
  0
LINE
  5
EF
100
AcDbEntity
  8
0
  6
CONTINUOUS
 62
    7
370
   25
100
AcDbLine
 10
-5.4803932188
 20
-33.0392135623
 11
-5.4803932188
 21
-62.2107864376
  0
LINE
  5
F0
100
AcDbEntity
  8
0
  6
CONTINUOUS
 62
    7
370
   25
100
AcDbLine
 10
-9.6446067812
 20
-28.4607864376
 11
-5.7732864376
 21
-32.3321067811
  0
LINE
  5
F1
100
AcDbEntity
  8
0
  6
CONTINUOUS
 62
    7
370
   25
100
AcDbLine
 10
-9.9375
 20
-22.8676427217
 11
-9.9375
 21
-27.7536796564
  0
LINE
  5
F2
100
AcDbEntity
  8
0
  6
CONTINUOUS
 62
    7
370
   25
100
AcDbLine
 10
-7.4019660941
 20
-19.9178952534
 11
-9.6446067812
 21
-22.1605359405
  0
LINE
  5
F3
100
AcDbEntity
  8
0
  6
CONTINUOUS
 62
    7
370
   25
100
AcDbLine
 10
-7.1090728753
 20
-15.4534291594
 11
-7.1090728753
 21
-19.2107884722
  0
LINE
  5
F4
100
AcDbEntity
  8
0
  6
CONTINUOUS
 62
    7
370
   25
100
AcDbLine
 10
-7.1090728753
 20
-6.039215597
 11
-7.1090728753
 21
-9.7965749099
  0
LINE
  5
F5
100
AcDbEntity
  8
0
  6
CONTINUOUS
 62
    7
370
   25
100
AcDbLine
 10
-9.6446067812
 20
-3.0894681287
 11
-7.4019660941
 21
-5.3321088158
  0
LINE
  5
F6
100
AcDbEntity
  8
0
  6
CONTINUOUS
 62
    7
370
   25
100
AcDbLine
 10
-9.9375
 20
1.375
 11
-9.9375
 21
-2.3823613475
  0
LINE
  5
F7
100
AcDbEntity
  8
0
  6
CONTINUOUS
 62
    7
370
   25
100
AcDbLine
 10
245.0625
 20
4.375
 11
-6.9375
 21
4.375
  0
LINE
  5
F8
100
AcDbEntity
  8
0
  6
CONTINUOUS
 62
    7
370
   25
100
AcDbLine
 10
248.0625
 20
-2.3823613475
 11
248.0625
 21
1.375
  0
LINE
  5
F9
100
AcDbEntity
  8
0
  6
CONTINUOUS
 62
    7
370
   25
100
AcDbLine
 10
245.5269660941
 20
-5.3321088158
 11
247.7696067812
 21
-3.0894681287
  0
LINE
  5
FA
100
AcDbEntity
  8
0
  6
CONTINUOUS
 62
    7
370
   25
100
AcDbLine
 10
245.2340728752
 20
-9.7965749099
 11
245.2340728752
 21
-6.039215597
  0
LINE
  5
FB
100
AcDbEntity
  8
0
  6
CONTINUOUS
 62
    7
370
   25
100
AcDbLine
 10
245.2340728752
 20
-19.2107884723
 11
245.2340728752
 21
-15.4534291594
  0
LINE
  5
FC
100
AcDbEntity
  8
0
  6
CONTINUOUS
 62
    7
370
   25
100
AcDbLine
 10
247.7696067812
 20
-22.1605359406
 11
245.5269660941
 21
-19.9178952535
  0
LINE
  5
FD
100
AcDbEntity
  8
0
  6
CONTINUOUS
 62
    7
370
   25
100
AcDbLine
 10
2.525
 20
-3.025
 11
2.525
 21
-16.025
  0
LINE
  5
FE
100
AcDbEntity
  8
0
  6
CONTINUOUS
 62
    7
370
   25
100
AcDbLine
 10
3.025
 20
-16.525
 11
16.025
 21
-16.525
  0
LINE
  5
FF
100
AcDbEntity
  8
0
  6
CONTINUOUS
 62
    7
370
   25
100
AcDbLine
 10
16.525
 20
-16.025
 11
16.525
 21
-3.025
  0
LINE
  5
100
100
AcDbEntity
  8
0
  6
CONTINUOUS
 62
    7
370
   25
100
AcDbLine
 10
16.025
 20
-2.525
 11
3.025
 21
-2.525
  0
LINE
  5
101
100
AcDbEntity
  8
0
  6
CONTINUOUS
 62
    7
370
   25
100
AcDbLine
 10
40.625
 20
-3.025
 11
40.625
 21
-16.025
  0
LINE
  5
102
100
AcDbEntity
  8
0
  6
CONTINUOUS
 62
    7
370
   25
100
AcDbLine
 10
41.125
 20
-16.525
 11
54.125
 21
-16.525
  0
LINE
  5
103
100
AcDbEntity
  8
0
  6
CONTINUOUS
 62
    7
370
   25
100
AcDbLine
 10
54.625
 20
-16.025
 11
54.625
 21
-3.025
  0
LINE
  5
104
100
AcDbEntity
  8
0
  6
CONTINUOUS
 62
    7
370
   25
100
AcDbLine
 10
54.125
 20
-2.525
 11
41.125
 21
-2.525
  0
LINE
  5
105
100
AcDbEntity
  8
0
  6
CONTINUOUS
 62
    7
370
   25
100
AcDbLine
 10
78.72499999999999
 20
-3.025
 11
78.72499999999999
 21
-16.025
  0
LINE
  5
106
100
AcDbEntity
  8
0
  6
CONTINUOUS
 62
    7
370
   25
100
AcDbLine
 10
79.22499999999999
 20
-16.525
 11
92.22499999999999
 21
-16.525
  0
LINE
  5
107
100
AcDbEntity
  8
0
  6
CONTINUOUS
 62
    7
370
   25
100
AcDbLine
 10
92.72499999999999
 20
-16.025
 11
92.72499999999999
 21
-3.025
  0
LINE
  5
108
100
AcDbEntity
  8
0
  6
CONTINUOUS
 62
    7
370
   25
100
AcDbLine
 10
92.22499999999999
 20
-2.525
 11
79.22499999999999
 21
-2.525
  0
LINE
  5
109
100
AcDbEntity
  8
0
  6
CONTINUOUS
 62
    7
370
   25
100
AcDbLine
 10
116.825
 20
-3.025
 11
116.825
 21
-16.025
  0
LINE
  5
10A
100
AcDbEntity
  8
0
  6
CONTINUOUS
 62
    7
370
   25
100
AcDbLine
 10
117.325
 20
-16.525
 11
130.325
 21
-16.525
  0
LINE
  5
10B
100
AcDbEntity
  8
0
  6
CONTINUOUS
 62
    7
370
   25
100
AcDbLine
 10
130.825
 20
-16.025
 11
130.825
 21
-3.025
  0
LINE
  5
10C
100
AcDbEntity
  8
0
  6
CONTINUOUS
 62
    7
370
   25
100
AcDbLine
 10
130.325
 20
-2.525
 11
117.325
 21
-2.525
  0
LINE
  5
10D
100
AcDbEntity
  8
0
  6
CONTINUOUS
 62
    7
370
   25
100
AcDbLine
 10
31.1
 20
-22.075
 11
31.1
 21
-35.075
  0
LINE
  5
10E
100
AcDbEntity
  8
0
  6
CONTINUOUS
 62
    7
370
   25
100
AcDbLine
 10
31.6
 20
-35.575
 11
44.6
 21
-35.575
  0
LINE
  5
10F
100
AcDbEntity
  8
0
  6
CONTINUOUS
 62
    7
370
   25
100
AcDbLine
 10
45.1
 20
-35.075
 11
45.1
 21
-22.075
  0
LINE
  5
110
100
AcDbEntity
  8
0
  6
CONTINUOUS
 62
    7
370
   25
100
AcDbLine
 10
44.6
 20
-21.575
 11
31.6
 21
-21.575
  0
LINE
  5
111
100
AcDbEntity
  8
0
  6
CONTINUOUS
 62
    7
370
   25
100
AcDbLine
 10
69.2
 20
-22.075
 11
69.2
 21
-35.075
  0
LINE
  5
112
100
AcDbEntity
  8
0
  6
CONTINUOUS
 62
    7
370
   25
100
AcDbLine
 10
69.7
 20
-35.575
 11
82.7
 21
-35.575
  0
LINE
  5
113
100
AcDbEntity
  8
0
  6
CONTINUOUS
 62
    7
370
   25
100
AcDbLine
 10
83.2
 20
-35.075
 11
83.2
 21
-22.075
  0
LINE
  5
114
100
AcDbEntity
  8
0
  6
CONTINUOUS
 62
    7
370
   25
100
AcDbLine
 10
82.7
 20
-21.575
 11
69.7
 21
-21.575
  0
LINE
  5
115
100
AcDbEntity
  8
0
  6
CONTINUOUS
 62
    7
370
   25
100
AcDbLine
 10
107.3
 20
-22.075
 11
107.3
 21
-35.075
  0
LINE
  5
116
100
AcDbEntity
  8
0
  6
CONTINUOUS
 62
    7
370
   25
100
AcDbLine
 10
107.8
 20
-35.575
 11
120.8
 21
-35.575
  0
LINE
  5
117
100
AcDbEntity
  8
0
  6
CONTINUOUS
 62
    7
370
   25
100
AcDbLine
 10
121.3
 20
-35.075
 11
121.3
 21
-22.075
  0
LINE
  5
118
100
AcDbEntity
  8
0
  6
CONTINUOUS
 62
    7
370
   25
100
AcDbLine
 10
120.8
 20
-21.575
 11
107.8
 21
-21.575
  0
LINE
  5
119
100
AcDbEntity
  8
0
  6
CONTINUOUS
 62
    7
370
   25
100
AcDbLine
 10
145.4
 20
-22.075
 11
145.4
 21
-35.075
  0
LINE
  5
11A
100
AcDbEntity
  8
0
  6
CONTINUOUS
 62
    7
370
   25
100
AcDbLine
 10
145.9
 20
-35.575
 11
158.9
 21
-35.575
  0
LINE
  5
11B
100
AcDbEntity
  8
0
  6
CONTINUOUS
 62
    7
370
   25
100
AcDbLine
 10
159.4
 20
-35.075
 11
159.4
 21
-22.075
  0
LINE
  5
11C
100
AcDbEntity
  8
0
  6
CONTINUOUS
 62
    7
370
   25
100
AcDbLine
 10
158.9
 20
-21.575
 11
145.9
 21
-21.575
  0
LINE
  5
11D
100
AcDbEntity
  8
0
  6
CONTINUOUS
 62
    7
370
   25
100
AcDbLine
 10
183.5
 20
-22.075
 11
183.5
 21
-35.075
  0
LINE
  5
11E
100
AcDbEntity
  8
0
  6
CONTINUOUS
 62
    7
370
   25
100
AcDbLine
 10
184
 20
-35.575
 11
197
 21
-35.575
  0
LINE
  5
11F
100
AcDbEntity
  8
0
  6
CONTINUOUS
 62
    7
370
   25
100
AcDbLine
 10
197.5
 20
-35.075
 11
197.5
 21
-22.075
  0
LINE
  5
120
100
AcDbEntity
  8
0
  6
CONTINUOUS
 62
    7
370
   25
100
AcDbLine
 10
197
 20
-21.575
 11
184
 21
-21.575
  0
LINE
  5
121
100
AcDbEntity
  8
0
  6
CONTINUOUS
 62
    7
370
   25
100
AcDbLine
 10
221.6
 20
-22.075
 11
221.6
 21
-35.075
  0
LINE
  5
122
100
AcDbEntity
  8
0
  6
CONTINUOUS
 62
    7
370
   25
100
AcDbLine
 10
222.1
 20
-35.575
 11
235.1
 21
-35.575
  0
LINE
  5
123
100
AcDbEntity
  8
0
  6
CONTINUOUS
 62
    7
370
   25
100
AcDbLine
 10
235.6
 20
-35.075
 11
235.6
 21
-22.075
  0
LINE
  5
124
100
AcDbEntity
  8
0
  6
CONTINUOUS
 62
    7
370
   25
100
AcDbLine
 10
235.1
 20
-21.575
 11
222.1
 21
-21.575
  0
LINE
  5
125
100
AcDbEntity
  8
0
  6
CONTINUOUS
 62
    7
370
   25
100
AcDbLine
 10
35.8625
 20
-41.125
 11
35.8625
 21
-54.125
  0
LINE
  5
126
100
AcDbEntity
  8
0
  6
CONTINUOUS
 62
    7
370
   25
100
AcDbLine
 10
36.3625
 20
-54.625
 11
49.3625
 21
-54.625
  0
LINE
  5
127
100
AcDbEntity
  8
0
  6
CONTINUOUS
 62
    7
370
   25
100
AcDbLine
 10
49.8625
 20
-54.125
 11
49.8625
 21
-41.125
  0
LINE
  5
128
100
AcDbEntity
  8
0
  6
CONTINUOUS
 62
    7
370
   25
100
AcDbLine
 10
49.3625
 20
-40.625
 11
36.3625
 21
-40.625
  0
LINE
  5
129
100
AcDbEntity
  8
0
  6
CONTINUOUS
 62
    7
370
   25
100
AcDbLine
 10
73.96250000000001
 20
-41.125
 11
73.96250000000001
 21
-54.125
  0
LINE
  5
12A
100
AcDbEntity
  8
0
  6
CONTINUOUS
 62
    7
370
   25
100
AcDbLine
 10
74.46250000000001
 20
-54.625
 11
87.46250000000001
 21
-54.625
  0
LINE
  5
12B
100
AcDbEntity
  8
0
  6
CONTINUOUS
 62
    7
370
   25
100
AcDbLine
 10
87.96250000000001
 20
-54.125
 11
87.96250000000001
 21
-41.125
  0
LINE
  5
12C
100
AcDbEntity
  8
0
  6
CONTINUOUS
 62
    7
370
   25
100
AcDbLine
 10
87.46250000000001
 20
-40.625
 11
74.46250000000001
 21
-40.625
  0
LINE
  5
12D
100
AcDbEntity
  8
0
  6
CONTINUOUS
 62
    7
370
   25
100
AcDbLine
 10
112.0625
 20
-41.125
 11
112.0625
 21
-54.125
  0
LINE
  5
12E
100
AcDbEntity
  8
0
  6
CONTINUOUS
 62
    7
370
   25
100
AcDbLine
 10
112.5625
 20
-54.625
 11
125.5625
 21
-54.625
  0
LINE
  5
12F
100
AcDbEntity
  8
0
  6
CONTINUOUS
 62
    7
370
   25
100
AcDbLine
 10
126.0625
 20
-54.125
 11
126.0625
 21
-41.125
  0
LINE
  5
130
100
AcDbEntity
  8
0
  6
CONTINUOUS
 62
    7
370
   25
100
AcDbLine
 10
125.5625
 20
-40.625
 11
112.5625
 21
-40.625
  0
LINE
  5
131
100
AcDbEntity
  8
0
  6
CONTINUOUS
 62
    7
370
   25
100
AcDbLine
 10
150.1625
 20
-41.125
 11
150.1625
 21
-54.125
  0
LINE
  5
132
100
AcDbEntity
  8
0
  6
CONTINUOUS
 62
    7
370
   25
100
AcDbLine
 10
150.6625
 20
-54.625
 11
163.6625
 21
-54.625
  0
LINE
  5
133
100
AcDbEntity
  8
0
  6
CONTINUOUS
 62
    7
370
   25
100
AcDbLine
 10
164.1625
 20
-54.125
 11
164.1625
 21
-41.125
  0
LINE
  5
134
100
AcDbEntity
  8
0
  6
CONTINUOUS
 62
    7
370
   25
100
AcDbLine
 10
163.6625
 20
-40.625
 11
150.6625
 21
-40.625
  0
LINE
  5
135
100
AcDbEntity
  8
0
  6
CONTINUOUS
 62
    7
370
   25
100
AcDbLine
 10
188.2625
 20
-41.125
 11
188.2625
 21
-54.125
  0
LINE
  5
136
100
AcDbEntity
  8
0
  6
CONTINUOUS
 62
    7
370
   25
100
AcDbLine
 10
188.7625
 20
-54.625
 11
201.7625
 21
-54.625
  0
LINE
  5
137
100
AcDbEntity
  8
0
  6
CONTINUOUS
 62
    7
370
   25
100
AcDbLine
 10
202.2625
 20
-54.125
 11
202.2625
 21
-41.125
  0
LINE
  5
138
100
AcDbEntity
  8
0
  6
CONTINUOUS
 62
    7
370
   25
100
AcDbLine
 10
201.7625
 20
-40.625
 11
188.7625
 21
-40.625
  0
LINE
  5
139
100
AcDbEntity
  8
0
  6
CONTINUOUS
 62
    7
370
   25
100
AcDbLine
 10
178.7375
 20
-60.175
 11
178.7375
 21
-73.175
  0
LINE
  5
13A
100
AcDbEntity
  8
0
  6
CONTINUOUS
 62
    7
370
   25
100
AcDbLine
 10
179.2375
 20
-73.675
 11
192.2375
 21
-73.675
  0
LINE
  5
13B
100
AcDbEntity
  8
0
  6
CONTINUOUS
 62
    7
370
   25
100
AcDbLine
 10
192.7375
 20
-73.175
 11
192.7375
 21
-60.175
  0
LINE
  5
13C
100
AcDbEntity
  8
0
  6
CONTINUOUS
 62
    7
370
   25
100
AcDbLine
 10
192.2375
 20
-59.675
 11
179.2375
 21
-59.675
  0
LINE
  5
13D
100
AcDbEntity
  8
0
  6
CONTINUOUS
 62
    7
370
   25
100
AcDbLine
 10
4.90625
 20
-60.175
 11
4.90625
 21
-73.175
  0
LINE
  5
13E
100
AcDbEntity
  8
0
  6
CONTINUOUS
 62
    7
370
   25
100
AcDbLine
 10
5.40625
 20
-73.675
 11
5.49325
 21
-73.675
  0
LINE
  5
13F
100
AcDbEntity
  8
0
  6
CONTINUOUS
 62
    7
370
   25
100
AcDbLine
 10
5.99325
 20
-74.175
 11
5.99325
 21
-75.175
  0
LINE
  5
140
100
AcDbEntity
  8
0
  6
CONTINUOUS
 62
    7
370
   25
100
AcDbLine
 10
6.49325
 20
-75.675
 11
12.49325
 21
-75.675
  0
LINE
  5
141
100
AcDbEntity
  8
0
  6
CONTINUOUS
 62
    7
370
   25
100
AcDbLine
 10
12.99325
 20
-75.175
 11
12.99325
 21
-74.175
  0
LINE
  5
142
100
AcDbEntity
  8
0
  6
CONTINUOUS
 62
    7
370
   25
100
AcDbLine
 10
13.49325
 20
-73.675
 11
29.36925
 21
-73.675
  0
LINE
  5
143
100
AcDbEntity
  8
0
  6
CONTINUOUS
 62
    7
370
   25
100
AcDbLine
 10
29.86925
 20
-74.175
 11
29.86925
 21
-75.175
  0
LINE
  5
144
100
AcDbEntity
  8
0
  6
CONTINUOUS
 62
    7
370
   25
100
AcDbLine
 10
30.36925
 20
-75.675
 11
36.36925
 21
-75.675
  0
LINE
  5
145
100
AcDbEntity
  8
0
  6
CONTINUOUS
 62
    7
370
   25
100
AcDbLine
 10
36.86925
 20
-75.175
 11
36.86925
 21
-74.175
  0
LINE
  5
146
100
AcDbEntity
  8
0
  6
CONTINUOUS
 62
    7
370
   25
100
AcDbLine
 10
37.36925
 20
-73.675
 11
39.8375
 21
-73.675
  0
LINE
  5
147
100
AcDbEntity
  8
0
  6
CONTINUOUS
 62
    7
370
   25
100
AcDbLine
 10
40.3375
 20
-73.175
 11
40.3375
 21
-60.175
  0
LINE
  5
148
100
AcDbEntity
  8
0
  6
CONTINUOUS
 62
    7
370
   25
100
AcDbLine
 10
39.8375
 20
-59.675
 11
5.40625
 21
-59.675
  0
LINE
  5
149
100
AcDbEntity
  8
0
  6
CONTINUOUS
 62
    7
370
   25
100
AcDbLine
 10
45.3875
 20
-60.175
 11
45.3875
 21
-73.175
  0
LINE
  5
14A
100
AcDbEntity
  8
0
  6
CONTINUOUS
 62
    7
370
   25
100
AcDbLine
 10
45.8875
 20
-73.675
 11
58.8875
 21
-73.675
  0
LINE
  5
14B
100
AcDbEntity
  8
0
  6
CONTINUOUS
 62
    7
370
   25
100
AcDbLine
 10
59.3875
 20
-73.175
 11
59.3875
 21
-60.175
  0
LINE
  5
14C
100
AcDbEntity
  8
0
  6
CONTINUOUS
 62
    7
370
   25
100
AcDbLine
 10
58.8875
 20
-59.675
 11
45.8875
 21
-59.675
  0
LINE
  5
14D
100
AcDbEntity
  8
0
  6
CONTINUOUS
 62
    7
370
   25
100
AcDbLine
 10
33.48125
 20
-79.22499999999999
 11
33.48125
 21
-92.22499999999999
  0
LINE
  5
14E
100
AcDbEntity
  8
0
  6
CONTINUOUS
 62
    7
370
   25
100
AcDbLine
 10
33.98125
 20
-92.72499999999999
 11
46.98125
 21
-92.72499999999999
  0
LINE
  5
14F
100
AcDbEntity
  8
0
  6
CONTINUOUS
 62
    7
370
   25
100
AcDbLine
 10
47.48125
 20
-92.22499999999999
 11
47.48125
 21
-79.22499999999999
  0
LINE
  5
150
100
AcDbEntity
  8
0
  6
CONTINUOUS
 62
    7
370
   25
100
AcDbLine
 10
46.98125
 20
-78.72499999999999
 11
33.98125
 21
-78.72499999999999
  0
LINE
  5
151
100
AcDbEntity
  8
0
  6
CONTINUOUS
 62
    7
370
   25
100
AcDbLine
 10
85.86875000000001
 20
-79.22499999999999
 11
85.86875000000001
 21
-92.22499999999999
  0
LINE
  5
152
100
AcDbEntity
  8
0
  6
CONTINUOUS
 62
    7
370
   25
100
AcDbLine
 10
86.36875000000001
 20
-92.72499999999999
 11
99.36875000000001
 21
-92.72499999999999
  0
LINE
  5
153
100
AcDbEntity
  8
0
  6
CONTINUOUS
 62
    7
370
   25
100
AcDbLine
 10
99.86875000000001
 20
-92.22499999999999
 11
99.86875000000001
 21
-79.22499999999999
  0
LINE
  5
154
100
AcDbEntity
  8
0
  6
CONTINUOUS
 62
    7
370
   25
100
AcDbLine
 10
99.36875000000001
 20
-78.72499999999999
 11
86.36875000000001
 21
-78.72499999999999
  0
LINE
  5
155
100
AcDbEntity
  8
0
  6
CONTINUOUS
 62
    7
370
   25
100
AcDbLine
 10
101.80675
 20
-94.72499999999999
 11
107.80675
 21
-94.72499999999999
  0
LINE
  5
156
100
AcDbEntity
  8
0
  6
CONTINUOUS
 62
    7
370
   25
100
AcDbLine
 10
108.30675
 20
-94.22499999999999
 11
108.30675
 21
-79.22499999999999
  0
LINE
  5
157
100
AcDbEntity
  8
0
  6
CONTINUOUS
 62
    7
370
   25
100
AcDbLine
 10
107.80675
 20
-78.72499999999999
 11
101.80675
 21
-78.72499999999999
  0
LINE
  5
158
100
AcDbEntity
  8
0
  6
CONTINUOUS
 62
    7
370
   25
100
AcDbLine
 10
101.30675
 20
-79.22499999999999
 11
101.30675
 21
-94.22499999999999
  0
LINE
  5
159
100
AcDbEntity
  8
0
  6
CONTINUOUS
 62
    7
370
   25
100
AcDbLine
 10
131.55575
 20
-78.72499999999999
 11
125.55575
 21
-78.72499999999999
  0
LINE
  5
15A
100
AcDbEntity
  8
0
  6
CONTINUOUS
 62
    7
370
   25
100
AcDbLine
 10
125.05575
 20
-79.22499999999999
 11
125.05575
 21
-94.22499999999999
  0
LINE
  5
15B
100
AcDbEntity
  8
0
  6
CONTINUOUS
 62
    7
370
   25
100
AcDbLine
 10
125.55575
 20
-94.72499999999999
 11
131.55575
 21
-94.72499999999999
  0
LINE
  5
15C
100
AcDbEntity
  8
0
  6
CONTINUOUS
 62
    7
370
   25
100
AcDbLine
 10
132.05575
 20
-94.22499999999999
 11
132.05575
 21
-79.22499999999999
  0
LINE
  5
15D
100
AcDbEntity
  8
0
  6
CONTINUOUS
 62
    7
370
   25
100
AcDbLine
 10
190.64375
 20
-79.22499999999999
 11
190.64375
 21
-92.22499999999999
  0
LINE
  5
15E
100
AcDbEntity
  8
0
  6
CONTINUOUS
 62
    7
370
   25
100
AcDbLine
 10
191.14375
 20
-92.72499999999999
 11
204.14375
 21
-92.72499999999999
  0
LINE
  5
15F
100
AcDbEntity
  8
0
  6
CONTINUOUS
 62
    7
370
   25
100
AcDbLine
 10
204.64375
 20
-92.22499999999999
 11
204.64375
 21
-79.22499999999999
  0
LINE
  5
160
100
AcDbEntity
  8
0
  6
CONTINUOUS
 62
    7
370
   25
100
AcDbLine
 10
204.14375
 20
-78.72499999999999
 11
191.14375
 21
-78.72499999999999
  0
LINE
  5
161
100
AcDbEntity
  8
0
  6
CONTINUOUS
 62
    7
370
   25
100
AcDbLine
 10
239.375
 20
-14.7965728752
 11
239.375
 21
-0.4534271247
  0
LINE
  5
162
100
AcDbEntity
  8
0
  6
CONTINUOUS
 62
    7
370
   25
100
AcDbLine
 10
237.375
 20
2.375
 11
156.375
 21
2.375
  0
LINE
  5
163
100
AcDbEntity
  8
0
  6
CONTINUOUS
 62
    7
370
   25
100
AcDbLine
 10
153.375
 20
-0.625
 11
153.375
 21
-14.625
  0
LINE
  5
164
100
AcDbEntity
  8
0
  6
CONTINUOUS
 62
    7
370
   25
100
AcDbLine
 10
156.375
 20
-17.625
 11
237.375
 21
-17.625
  0
LINE
  5
165
100
AcDbEntity
  8
0
  6
CONTINUOUS
 62
    7
370
   25
100
AcDbLine
 10
243.2340728753
 20
-90.03921152780001
 11
243.2340728753
 21
-75.21078440300001
  0
LINE
  5
166
100
AcDbEntity
  8
0
  6
CONTINUOUS
 62
    7
370
   25
100
AcDbLine
 10
243.5269660941
 20
-74.50367762179999
 11
245.7696067812
 21
-72.2610369347
  0
LINE
  5
167
100
AcDbEntity
  8
0
  6
CONTINUOUS
 62
    7
370
   25
100
AcDbLine
 10
246.0625
 20
-71.5539301535
 11
246.0625
 21
-68.9681437159
  0
LINE
  5
168
100
AcDbEntity
  8
0
  6
CONTINUOUS
 62
    7
370
   25
100
AcDbLine
 10
245.0625
 20
-67.9681437159
 11
244.8982864376
 21
-67.9681437159
  0
LINE
  5
169
100
AcDbEntity
  8
0
  6
CONTINUOUS
 62
    7
370
   25
100
AcDbLine
 10
243.8982864376
 20
-68.9681437159
 11
243.8982864376
 21
-71.59682337229999
  0
LINE
  5
16A
100
AcDbEntity
  8
0
  6
CONTINUOUS
 62
    7
370
   25
100
AcDbLine
 10
243.6053932188
 20
-72.3039301535
 11
242.0269660941
 21
-73.88235727830001
  0
LINE
  5
16B
100
AcDbEntity
  8
0
  6
CONTINUOUS
 62
    7
370
   25
100
AcDbLine
 10
241.7340728753
 20
-74.5894640594
 11
241.7340728753
 21
-90.66053187129999
  0
LINE
  5
16C
100
AcDbEntity
  8
0
  6
CONTINUOUS
 62
    7
370
   25
100
AcDbLine
 10
242.0269660941
 20
-91.36763865250001
 11
243.6053932188
 21
-92.9460657772
  0
LINE
  5
16D
100
AcDbEntity
  8
0
  6
CONTINUOUS
 62
    7
370
   25
100
AcDbLine
 10
243.8982864376
 20
-93.6531725584
 11
243.8982864376
 21
-96.2818522149
  0
LINE
  5
16E
100
AcDbEntity
  8
0
  6
CONTINUOUS
 62
    7
370
   25
100
AcDbLine
 10
244.8982864376
 20
-97.2818522149
 11
245.0625
 21
-97.2818522149
  0
LINE
  5
16F
100
AcDbEntity
  8
0
  6
CONTINUOUS
 62
    7
370
   25
100
AcDbLine
 10
246.0625
 20
-96.2818522149
 11
246.0625
 21
-93.6960657772
  0
LINE
  5
170
100
AcDbEntity
  8
0
  6
CONTINUOUS
 62
    7
370
   25
100
AcDbLine
 10
245.7696067812
 20
-92.9889589961
 11
243.5269660941
 21
-90.7463183089
  0
LINE
  5
171
100
AcDbEntity
  8
0
  6
CONTINUOUS
 62
    7
370
   25
100
AcDbLine
 10
-5.1090728753
 20
-5.2107884722
 11
-5.1090728753
 21
-20.039215597
  0
LINE
  5
172
100
AcDbEntity
  8
0
  6
CONTINUOUS
 62
    7
370
   25
100
AcDbLine
 10
-5.4019660941
 20
-20.7463223782
 11
-7.6446067812
 21
-22.9889630653
  0
LINE
  5
173
100
AcDbEntity
  8
0
  6
CONTINUOUS
 62
    7
370
   25
100
AcDbLine
 10
-7.9375
 20
-23.6960698465
 11
-7.9375
 21
-26.2818562841
  0
LINE
  5
174
100
AcDbEntity
  8
0
  6
CONTINUOUS
 62
    7
370
   25
100
AcDbLine
 10
-6.9375
 20
-27.2818562841
 11
-6.7732864376
 21
-27.2818562841
  0
LINE
  5
175
100
AcDbEntity
  8
0
  6
CONTINUOUS
 62
    7
370
   25
100
AcDbLine
 10
-5.7732864376
 20
-26.2818562841
 11
-5.7732864376
 21
-23.6531766277
  0
LINE
  5
176
100
AcDbEntity
  8
0
  6
CONTINUOUS
 62
    7
370
   25
100
AcDbLine
 10
-5.4803932188
 20
-22.9460698465
 11
-3.9019660941
 21
-21.3676427217
  0
LINE
  5
177
100
AcDbEntity
  8
0
  6
CONTINUOUS
 62
    7
370
   25
100
AcDbLine
 10
-3.6090728753
 20
-20.6605359406
 11
-3.6090728753
 21
-4.5894681287
  0
LINE
  5
178
100
AcDbEntity
  8
0
  6
CONTINUOUS
 62
    7
370
   25
100
AcDbLine
 10
-3.9019660941
 20
-3.8823613475
 11
-5.4803932188
 21
-2.3039342228
  0
LINE
  5
179
100
AcDbEntity
  8
0
  6
CONTINUOUS
 62
    7
370
   25
100
AcDbLine
 10
-5.7732864376
 20
-1.5968274416
 11
-5.7732864376
 21
1.0318522149
  0
LINE
  5
17A
100
AcDbEntity
  8
0
  6
CONTINUOUS
 62
    7
370
   25
100
AcDbLine
 10
-6.7732864376
 20
2.0318522149
 11
-6.9375
 21
2.0318522149
  0
LINE
  5
17B
100
AcDbEntity
  8
0
  6
CONTINUOUS
 62
    7
370
   25
100
AcDbLine
 10
-7.9375
 20
1.0318522149
 11
-7.9375
 21
-1.5539342228
  0
LINE
  5
17C
100
AcDbEntity
  8
0
  6
CONTINUOUS
 62
    7
370
   25
100
AcDbLine
 10
-7.6446067812
 20
-2.2610410039
 11
-5.4019660941
 21
-4.5036816911
  0
LINE
  5
17D
100
AcDbEntity
  8
0
  6
CONTINUOUS
 62
    7
370
   25
100
AcDbLine
 10
64.4375
 20
-60.175
 11
64.4375
 21
-73.175
  0
LINE
  5
17E
100
AcDbEntity
  8
0
  6
CONTINUOUS
 62
    7
370
   25
100
AcDbLine
 10
64.9375
 20
-73.675
 11
77.9375
 21
-73.675
  0
LINE
  5
17F
100
AcDbEntity
  8
0
  6
CONTINUOUS
 62
    7
370
   25
100
AcDbLine
 10
78.4375
 20
-73.175
 11
78.4375
 21
-60.175
  0
LINE
  5
180
100
AcDbEntity
  8
0
  6
CONTINUOUS
 62
    7
370
   25
100
AcDbLine
 10
77.9375
 20
-59.675
 11
64.9375
 21
-59.675
  0
LINE
  5
181
100
AcDbEntity
  8
0
  6
CONTINUOUS
 62
    7
370
   25
100
AcDbLine
 10
102.5375
 20
-60.175
 11
102.5375
 21
-73.175
  0
LINE
  5
182
100
AcDbEntity
  8
0
  6
CONTINUOUS
 62
    7
370
   25
100
AcDbLine
 10
103.0375
 20
-73.675
 11
116.0375
 21
-73.675
  0
LINE
  5
183
100
AcDbEntity
  8
0
  6
CONTINUOUS
 62
    7
370
   25
100
AcDbLine
 10
116.5375
 20
-73.175
 11
116.5375
 21
-60.175
  0
LINE
  5
184
100
AcDbEntity
  8
0
  6
CONTINUOUS
 62
    7
370
   25
100
AcDbLine
 10
116.0375
 20
-59.675
 11
103.0375
 21
-59.675
  0
LINE
  5
185
100
AcDbEntity
  8
0
  6
CONTINUOUS
 62
    7
370
   25
100
AcDbLine
 10
140.6375
 20
-60.175
 11
140.6375
 21
-73.175
  0
LINE
  5
186
100
AcDbEntity
  8
0
  6
CONTINUOUS
 62
    7
370
   25
100
AcDbLine
 10
141.1375
 20
-73.675
 11
154.1375
 21
-73.675
  0
LINE
  5
187
100
AcDbEntity
  8
0
  6
CONTINUOUS
 62
    7
370
   25
100
AcDbLine
 10
154.6375
 20
-73.175
 11
154.6375
 21
-60.175
  0
LINE
  5
188
100
AcDbEntity
  8
0
  6
CONTINUOUS
 62
    7
370
   25
100
AcDbLine
 10
154.1375
 20
-59.675
 11
141.1375
 21
-59.675
  0
ARC
  5
189
100
AcDbEntity
  8
0
  6
CONTINUOUS
 62
    7
370
   25
100
AcDbCircle
 10
160.1875
 20
-73.175
 40
0.5000000000000568
100
AcDbArc
 50
180
 51
270
  0
ARC
  5
18A
100
AcDbEntity
  8
0
  6
CONTINUOUS
 62
    7
370
   25
100
AcDbCircle
 10
173.1875
 20
-73.175
 40
0.5000000000000568
100
AcDbArc
 50
270
 51
360
  0
ARC
  5
18B
100
AcDbEntity
  8
0
  6
CONTINUOUS
 62
    7
370
   25
100
AcDbCircle
 10
173.1875
 20
-60.175
 40
0.5000000000000284
100
AcDbArc
 50
0
 51
90
  0
ARC
  5
18C
100
AcDbEntity
  8
0
  6
CONTINUOUS
 62
    7
370
   25
100
AcDbCircle
 10
160.1875
 20
-60.175
 40
0.5000000000000284
100
AcDbArc
 50
90
 51
180
  0
ARC
  5
18D
100
AcDbEntity
  8
0
  6
CONTINUOUS
 62
    7
370
   25
100
AcDbCircle
 10
122.0875
 20
-73.175
 40
0.5000000000000284
100
AcDbArc
 50
180
 51
270
  0
ARC
  5
18E
100
AcDbEntity
  8
0
  6
CONTINUOUS
 62
    7
370
   25
100
AcDbCircle
 10
135.0875
 20
-73.175
 40
0.5000000000000568
100
AcDbArc
 50
270
 51
360
  0
ARC
  5
18F
100
AcDbEntity
  8
0
  6
CONTINUOUS
 62
    7
370
   25
100
AcDbCircle
 10
135.0875
 20
-60.175
 40
0.5000000000000284
100
AcDbArc
 50
0
 51
90
  0
ARC
  5
190
100
AcDbEntity
  8
0
  6
CONTINUOUS
 62
    7
370
   25
100
AcDbCircle
 10
122.0875
 20
-60.175
 40
0.4999999999999787
100
AcDbArc
 50
90
 51
180
  0
ARC
  5
191
100
AcDbEntity
  8
0
  6
CONTINUOUS
 62
    7
370
   25
100
AcDbCircle
 10
83.9875
 20
-73.175
 40
0.5000000000000284
100
AcDbArc
 50
180
 51
270
  0
ARC
  5
192
100
AcDbEntity
  8
0
  6
CONTINUOUS
 62
    7
370
   25
100
AcDbCircle
 10
96.9875
 20
-73.175
 40
0.5000000000000568
100
AcDbArc
 50
270
 51
360
  0
ARC
  5
193
100
AcDbEntity
  8
0
  6
CONTINUOUS
 62
    7
370
   25
100
AcDbCircle
 10
96.9875
 20
-60.175
 40
0.5000000000000355
100
AcDbArc
 50
0
 51
90
  0
ARC
  5
194
100
AcDbEntity
  8
0
  6
CONTINUOUS
 62
    7
370
   25
100
AcDbCircle
 10
83.9875
 20
-60.175
 40
0.5000000000000142
100
AcDbArc
 50
90
 51
180
  0
ARC
  5
195
100
AcDbEntity
  8
0
  6
CONTINUOUS
 62
    7
370
   25
100
AcDbCircle
 10
136.375
 20
-16.025
 40
0.5
100
AcDbArc
 50
180
 51
270
  0
ARC
  5
196
100
AcDbEntity
  8
0
  6
CONTINUOUS
 62
    7
370
   25
100
AcDbCircle
 10
149.375
 20
-16.025
 40
0.4999999999999716
100
AcDbArc
 50
270
 51
0
  0
ARC
  5
197
100
AcDbEntity
  8
0
  6
CONTINUOUS
 62
    7
370
   25
100
AcDbCircle
 10
149.375
 20
-3.025
 40
0.4999999999999782
100
AcDbArc
 50
360
 51
90
  0
ARC
  5
198
100
AcDbEntity
  8
0
  6
CONTINUOUS
 62
    7
370
   25
100
AcDbCircle
 10
136.375
 20
-3.025
 40
0.4999999999999432
100
AcDbArc
 50
90
 51
180
  0
ARC
  5
199
100
AcDbEntity
  8
0
  6
CONTINUOUS
 62
    7
370
   25
100
AcDbCircle
 10
-6.9375
 20
-68.9681437159
 40
1.000000000000057
100
AcDbArc
 50
90.0000000009
 51
180
  0
ARC
  5
19A
100
AcDbEntity
  8
0
  6
CONTINUOUS
 62
    7
370
   25
100
AcDbCircle
 10
-6.9375
 20
-71.5539301535
 40
0.9999999999995565
100
AcDbArc
 50
180
 51
225
  0
ARC
  5
19B
100
AcDbEntity
  8
0
  6
CONTINUOUS
 62
    7
370
   25
100
AcDbCircle
 10
-6.1090728753
 20
-75.21078440300001
 40
0.9999999999999147
100
AcDbArc
 50
360
 51
45
  0
ARC
  5
19C
100
AcDbEntity
  8
0
  6
CONTINUOUS
 62
    7
370
   25
100
AcDbCircle
 10
-6.1090728753
 20
-90.03921152780001
 40
0.9999999999999396
100
AcDbArc
 50
315
 51
0
  0
ARC
  5
19D
100
AcDbEntity
  8
0
  6
CONTINUOUS
 62
    7
370
   25
100
AcDbCircle
 10
-6.9375
 20
-93.6960657772
 40
1.000000000000091
100
AcDbArc
 50
135
 51
180
  0
ARC
  5
19E
100
AcDbEntity
  8
0
  6
CONTINUOUS
 62
    7
370
   25
100
AcDbCircle
 10
-6.9375
 20
-96.2818522149
 40
1.000000000000001
100
AcDbArc
 50
180
 51
270
  0
ARC
  5
19F
100
AcDbEntity
  8
0
  6
CONTINUOUS
 62
    7
370
   25
100
AcDbCircle
 10
-6.7732864376
 20
-96.2818522149
 40
1
100
AcDbArc
 50
270
 51
0
  0
ARC
  5
1A0
100
AcDbEntity
  8
0
  6
CONTINUOUS
 62
    7
370
   25
100
AcDbCircle
 10
-4.7732864376
 20
-93.6531725584
 40
1.000000000000047
100
AcDbArc
 50
135
 51
180
  0
ARC
  5
1A1
100
AcDbEntity
  8
0
  6
CONTINUOUS
 62
    7
370
   25
100
AcDbCircle
 10
-4.6090728753
 20
-90.66053187129999
 40
0.9999999999999285
100
AcDbArc
 50
315
 51
0
  0
ARC
  5
1A2
100
AcDbEntity
  8
0
  6
CONTINUOUS
 62
    7
370
   25
100
AcDbCircle
 10
-4.6090728753
 20
-74.5894640595
 40
0.9999999999999832
100
AcDbArc
 50
9e-010
 51
45.0000000013
  0
ARC
  5
1A3
100
AcDbEntity
  8
0
  6
CONTINUOUS
 62
    7
370
   25
100
AcDbCircle
 10
-4.7732864376
 20
-71.59682337229999
 40
1.000000000000178
100
AcDbArc
 50
180
 51
225
  0
ARC
  5
1A4
100
AcDbEntity
  8
0
  6
CONTINUOUS
 62
    7
370
   25
100
AcDbCircle
 10
-6.7732864376
 20
-68.9681437159
 40
1.000000000000014
100
AcDbArc
 50
0
 51
90
  0
ARC
  5
1A5
100
AcDbEntity
  8
0
  6
CONTINUOUS
 62
    7
370
   25
100
AcDbCircle
 10
245.0625
 20
-26.2818562841
 40
0.9999999999999822
100
AcDbArc
 50
270
 51
0
  0
ARC
  5
1A6
100
AcDbEntity
  8
0
  6
CONTINUOUS
 62
    7
370
   25
100
AcDbCircle
 10
245.0625
 20
-23.6960698465
 40
0.9999999999999503
100
AcDbArc
 50
0
 51
45
  0
ARC
  5
1A7
100
AcDbEntity
  8
0
  6
CONTINUOUS
 62
    7
370
   25
100
AcDbCircle
 10
244.2340728753
 20
-20.039215597
 40
1.000000000000207
100
AcDbArc
 50
180
 51
225
  0
ARC
  5
1A8
100
AcDbEntity
  8
0
  6
CONTINUOUS
 62
    7
370
   25
100
AcDbCircle
 10
244.2340728753
 20
-5.2107884722
 40
0.9999999999999716
100
AcDbArc
 50
135
 51
180
  0
ARC
  5
1A9
100
AcDbEntity
  8
0
  6
CONTINUOUS
 62
    7
370
   25
100
AcDbCircle
 10
245.0625
 20
-1.5539342228
 40
1.000000000000114
100
AcDbArc
 50
315
 51
360
  0
ARC
  5
1AA
100
AcDbEntity
  8
0
  6
CONTINUOUS
 62
    7
370
   25
100
AcDbCircle
 10
245.0625
 20
1.0318522149
 40
1.000000000000006
100
AcDbArc
 50
0
 51
90
  0
ARC
  5
1AB
100
AcDbEntity
  8
0
  6
CONTINUOUS
 62
    7
370
   25
100
AcDbCircle
 10
244.8982864376
 20
1.0318522149
 40
0.9999999999999847
100
AcDbArc
 50
90
 51
180
  0
ARC
  5
1AC
100
AcDbEntity
  8
0
  6
CONTINUOUS
 62
    7
370
   25
100
AcDbCircle
 10
242.8982864376
 20
-1.5968274416
 40
1.000000000000057
100
AcDbArc
 50
315
 51
360
  0
ARC
  5
1AD
100
AcDbEntity
  8
0
  6
CONTINUOUS
 62
    7
370
   25
100
AcDbCircle
 10
242.7340728753
 20
-4.5894681287
 40
1.000000000000114
100
AcDbArc
 50
135
 51
180
  0
ARC
  5
1AE
100
AcDbEntity
  8
0
  6
CONTINUOUS
 62
    7
370
   25
100
AcDbCircle
 10
242.7340728753
 20
-20.6605359406
 40
0.9999999999999147
100
AcDbArc
 50
180
 51
225
  0
ARC
  5
1AF
100
AcDbEntity
  8
0
  6
CONTINUOUS
 62
    7
370
   25
100
AcDbCircle
 10
242.8982864376
 20
-23.6531766277
 40
1.000000000000179
100
AcDbArc
 50
0
 51
45
  0
ARC
  5
1B0
100
AcDbEntity
  8
0
  6
CONTINUOUS
 62
    7
370
   25
100
AcDbCircle
 10
244.8982864376
 20
-26.2818562841
 40
1.000000000000028
100
AcDbArc
 50
180
 51
270
  0
ARC
  5
1B1
100
AcDbEntity
  8
0
  6
CONTINUOUS
 62
    7
370
   25
100
AcDbCircle
 10
217.3375
 20
-92.22499999999999
 40
0.5000000000000568
100
AcDbArc
 50
180
 51
270
  0
ARC
  5
1B2
100
AcDbEntity
  8
0
  6
CONTINUOUS
 62
    7
370
   25
100
AcDbCircle
 10
230.3375
 20
-92.22499999999999
 40
0.5000000000000568
100
AcDbArc
 50
270
 51
360
  0
ARC
  5
1B3
100
AcDbEntity
  8
0
  6
CONTINUOUS
 62
    7
370
   25
100
AcDbCircle
 10
230.3375
 20
-79.22499999999999
 40
0.5000000000000284
100
AcDbArc
 50
0
 51
90
  0
ARC
  5
1B4
100
AcDbEntity
  8
0
  6
CONTINUOUS
 62
    7
370
   25
100
AcDbCircle
 10
217.3375
 20
-79.22499999999999
 40
0.5000000000000568
100
AcDbArc
 50
90
 51
180
  0
ARC
  5
1B5
100
AcDbEntity
  8
0
  6
CONTINUOUS
 62
    7
370
   25
100
AcDbCircle
 10
169.7125
 20
-92.22499999999999
 40
0.5000000000000568
100
AcDbArc
 50
180
 51
270
  0
ARC
  5
1B6
100
AcDbEntity
  8
0
  6
CONTINUOUS
 62
    7
370
   25
100
AcDbCircle
 10
182.7125
 20
-92.22499999999999
 40
0.5000000000000568
100
AcDbArc
 50
270
 51
360
  0
ARC
  5
1B7
100
AcDbEntity
  8
0
  6
CONTINUOUS
 62
    7
370
   25
100
AcDbCircle
 10
182.7125
 20
-79.22499999999999
 40
0.5000000000000284
100
AcDbArc
 50
0
 51
90
  0
ARC
  5
1B8
100
AcDbEntity
  8
0
  6
CONTINUOUS
 62
    7
370
   25
100
AcDbCircle
 10
169.7125
 20
-79.22499999999999
 40
0.5000000000000284
100
AcDbArc
 50
90
 51
180
  0
ARC
  5
1B9
100
AcDbEntity
  8
0
  6
CONTINUOUS
 62
    7
370
   25
100
AcDbCircle
 10
133.99375
 20
-92.22499999999999
 40
0.5
100
AcDbArc
 50
180
 51
270
  0
ARC
  5
1BA
100
AcDbEntity
  8
0
  6
CONTINUOUS
 62
    7
370
   25
100
AcDbCircle
 10
146.99375
 20
-92.22499999999999
 40
0.5000000000000568
100
AcDbArc
 50
270
 51
360
  0
ARC
  5
1BB
100
AcDbEntity
  8
0
  6
CONTINUOUS
 62
    7
370
   25
100
AcDbCircle
 10
146.99375
 20
-79.22499999999999
 40
0.5000000000000284
100
AcDbArc
 50
0
 51
90
  0
ARC
  5
1BC
100
AcDbEntity
  8
0
  6
CONTINUOUS
 62
    7
370
   25
100
AcDbCircle
 10
133.99375
 20
-79.22499999999999
 40
0.4999999999999716
100
AcDbArc
 50
90
 51
180
  0
ARC
  5
1BD
100
AcDbEntity
  8
0
  6
CONTINUOUS
 62
    7
370
   25
100
AcDbCircle
 10
149.43175
 20
-79.22499999999999
 40
0.5000000000000284
100
AcDbArc
 50
90
 51
180
  0
ARC
  5
1BE
100
AcDbEntity
  8
0
  6
CONTINUOUS
 62
    7
370
   25
100
AcDbCircle
 10
149.43175
 20
-94.22499999999999
 40
0.5000000000000568
100
AcDbArc
 50
180
 51
270
  0
ARC
  5
1BF
100
AcDbEntity
  8
0
  6
CONTINUOUS
 62
    7
370
   25
100
AcDbCircle
 10
155.43175
 20
-94.22499999999999
 40
0.4999999999999716
100
AcDbArc
 50
270
 51
0
  0
ARC
  5
1C0
100
AcDbEntity
  8
0
  6
CONTINUOUS
 62
    7
370
   25
100
AcDbCircle
 10
155.43175
 20
-79.22499999999999
 40
0.4999999999999716
100
AcDbArc
 50
360
 51
90
  0
ARC
  5
1C1
100
AcDbEntity
  8
0
  6
CONTINUOUS
 62
    7
370
   25
100
AcDbCircle
 10
55.4125
 20
-92.22499999999999
 40
0.5000000000000284
100
AcDbArc
 50
180
 51
270
  0
ARC
  5
1C2
100
AcDbEntity
  8
0
  6
CONTINUOUS
 62
    7
370
   25
100
AcDbCircle
 10
68.41249999999999
 20
-92.22499999999999
 40
0.5000000000000853
100
AcDbArc
 50
270
 51
360
  0
ARC
  5
1C3
100
AcDbEntity
  8
0
  6
CONTINUOUS
 62
    7
370
   25
100
AcDbCircle
 10
68.41249999999999
 20
-79.22499999999999
 40
0.5000000000000284
100
AcDbArc
 50
0
 51
90
  0
ARC
  5
1C4
100
AcDbEntity
  8
0
  6
CONTINUOUS
 62
    7
370
   25
100
AcDbCircle
 10
55.4125
 20
-79.22499999999999
 40
0.4999999999999858
100
AcDbArc
 50
90
 51
180
  0
ARC
  5
1C5
100
AcDbEntity
  8
0
  6
CONTINUOUS
 62
    7
370
   25
100
AcDbCircle
 10
7.7875
 20
-92.22499999999999
 40
0.5000000000000142
100
AcDbArc
 50
180
 51
270
  0
ARC
  5
1C6
100
AcDbEntity
  8
0
  6
CONTINUOUS
 62
    7
370
   25
100
AcDbCircle
 10
20.7875
 20
-92.22499999999999
 40
0.5000000000000142
100
AcDbArc
 50
270
 51
0
  0
ARC
  5
1C7
100
AcDbEntity
  8
0
  6
CONTINUOUS
 62
    7
370
   25
100
AcDbCircle
 10
20.7875
 20
-79.22499999999999
 40
0.4999999999999716
100
AcDbArc
 50
360
 51
90
  0
ARC
  5
1C8
100
AcDbEntity
  8
0
  6
CONTINUOUS
 62
    7
370
   25
100
AcDbCircle
 10
7.7875
 20
-79.22499999999999
 40
0.4999999999999858
100
AcDbArc
 50
90
 51
180
  0
ARC
  5
1C9
100
AcDbEntity
  8
0
  6
CONTINUOUS
 62
    7
370
   25
100
AcDbCircle
 10
77.93075
 20
-94.22499999999999
 40
0.5000000000000426
100
AcDbArc
 50
180
 51
270
  0
ARC
  5
1CA
100
AcDbEntity
  8
0
  6
CONTINUOUS
 62
    7
370
   25
100
AcDbCircle
 10
83.93075
 20
-94.22499999999999
 40
0.5000000000000568
100
AcDbArc
 50
270
 51
360
  0
ARC
  5
1CB
100
AcDbEntity
  8
0
  6
CONTINUOUS
 62
    7
370
   25
100
AcDbCircle
 10
83.93075
 20
-79.22499999999999
 40
0.5000000000000284
100
AcDbArc
 50
0
 51
90
  0
ARC
  5
1CC
100
AcDbEntity
  8
0
  6
CONTINUOUS
 62
    7
370
   25
100
AcDbCircle
 10
77.93075
 20
-79.22499999999999
 40
0.5000000000000142
100
AcDbArc
 50
90
 51
180
  0
ARC
  5
1CD
100
AcDbEntity
  8
0
  6
CONTINUOUS
 62
    7
370
   25
100
AcDbCircle
 10
198.2875
 20
-73.175
 40
0.5000000000000568
100
AcDbArc
 50
180
 51
270
  0
ARC
  5
1CE
100
AcDbEntity
  8
0
  6
CONTINUOUS
 62
    7
370
   25
100
AcDbCircle
 10
200.75575
 20
-74.175
 40
0.4999999999999716
100
AcDbArc
 50
360
 51
90
  0
ARC
  5
1CF
100
AcDbEntity
  8
0
  6
CONTINUOUS
 62
    7
370
   25
100
AcDbCircle
 10
201.75575
 20
-75.175
 40
0.5000000000000568
100
AcDbArc
 50
180
 51
270
  0
ARC
  5
1D0
100
AcDbEntity
  8
0
  6
CONTINUOUS
 62
    7
370
   25
100
AcDbCircle
 10
207.75575
 20
-75.175
 40
0.5
100
AcDbArc
 50
270
 51
0
  0
ARC
  5
1D1
100
AcDbEntity
  8
0
  6
CONTINUOUS
 62
    7
370
   25
100
AcDbCircle
 10
208.75575
 20
-74.175
 40
0.5000000000000284
100
AcDbArc
 50
90
 51
180
  0
ARC
  5
1D2
100
AcDbEntity
  8
0
  6
CONTINUOUS
 62
    7
370
   25
100
AcDbCircle
 10
224.63175
 20
-74.175
 40
0.4999999999999716
100
AcDbArc
 50
360
 51
90
  0
ARC
  5
1D3
100
AcDbEntity
  8
0
  6
CONTINUOUS
 62
    7
370
   25
100
AcDbCircle
 10
225.63175
 20
-75.175
 40
0.5000000000001279
100
AcDbArc
 50
180
 51
270
  0
ARC
  5
1D4
100
AcDbEntity
  8
0
  6
CONTINUOUS
 62
    7
370
   25
100
AcDbCircle
 10
231.63175
 20
-75.175
 40
0.5000000000001563
100
AcDbArc
 50
270
 51
360
  0
ARC
  5
1D5
100
AcDbEntity
  8
0
  6
CONTINUOUS
 62
    7
370
   25
100
AcDbCircle
 10
232.63175
 20
-74.175
 40
0.5
100
AcDbArc
 50
90
 51
180
  0
ARC
  5
1D6
100
AcDbEntity
  8
0
  6
CONTINUOUS
 62
    7
370
   25
100
AcDbCircle
 10
232.71875
 20
-73.175
 40
0.4999999999999574
100
AcDbArc
 50
270
 51
0
  0
ARC
  5
1D7
100
AcDbEntity
  8
0
  6
CONTINUOUS
 62
    7
370
   25
100
AcDbCircle
 10
232.71875
 20
-60.175
 40
0.5000000000000853
100
AcDbArc
 50
0
 51
90
  0
ARC
  5
1D8
100
AcDbEntity
  8
0
  6
CONTINUOUS
 62
    7
370
   25
100
AcDbCircle
 10
198.2875
 20
-60.175
 40
0.5000000000000284
100
AcDbArc
 50
90
 51
180
  0
ARC
  5
1D9
100
AcDbEntity
  8
0
  6
CONTINUOUS
 62
    7
370
   25
100
AcDbCircle
 10
214.95625
 20
-54.125
 40
0.5000000000000284
100
AcDbArc
 50
180
 51
270
  0
ARC
  5
1DA
100
AcDbEntity
  8
0
  6
CONTINUOUS
 62
    7
370
   25
100
AcDbCircle
 10
227.95625
 20
-54.125
 40
0.5000000000000284
100
AcDbArc
 50
270
 51
360
  0
ARC
  5
1DB
100
AcDbEntity
  8
0
  6
CONTINUOUS
 62
    7
370
   25
100
AcDbCircle
 10
227.95625
 20
-41.125
 40
0.5000000000000284
100
AcDbArc
 50
0
 51
90
  0
ARC
  5
1DC
100
AcDbEntity
  8
0
  6
CONTINUOUS
 62
    7
370
   25
100
AcDbCircle
 10
214.95625
 20
-41.125
 40
0.5000000000000284
100
AcDbArc
 50
90
 51
180
  0
ARC
  5
1DD
100
AcDbEntity
  8
0
  6
CONTINUOUS
 62
    7
370
   25
100
AcDbCircle
 10
169.7125
 20
-54.125
 40
0.5000000000000284
100
AcDbArc
 50
180
 51
270
  0
ARC
  5
1DE
100
AcDbEntity
  8
0
  6
CONTINUOUS
 62
    7
370
   25
100
AcDbCircle
 10
182.7125
 20
-54.125
 40
0.5000000000000284
100
AcDbArc
 50
270
 51
360
  0
ARC
  5
1DF
100
AcDbEntity
  8
0
  6
CONTINUOUS
 62
    7
370
   25
100
AcDbCircle
 10
182.7125
 20
-41.125
 40
0.5000000000000284
100
AcDbArc
 50
0
 51
90
  0
ARC
  5
1E0
100
AcDbEntity
  8
0
  6
CONTINUOUS
 62
    7
370
   25
100
AcDbCircle
 10
169.7125
 20
-41.125
 40
0.5000000000000568
100
AcDbArc
 50
90
 51
180
  0
ARC
  5
1E1
100
AcDbEntity
  8
0
  6
CONTINUOUS
 62
    7
370
   25
100
AcDbCircle
 10
131.6125
 20
-54.125
 40
0.5000000000000284
100
AcDbArc
 50
180
 51
270
  0
ARC
  5
1E2
100
AcDbEntity
  8
0
  6
CONTINUOUS
 62
    7
370
   25
100
AcDbCircle
 10
144.6125
 20
-54.125
 40
0.5000000000000284
100
AcDbArc
 50
270
 51
360
  0
ARC
  5
1E3
100
AcDbEntity
  8
0
  6
CONTINUOUS
 62
    7
370
   25
100
AcDbCircle
 10
144.6125
 20
-41.125
 40
0.5000000000000284
100
AcDbArc
 50
0
 51
90
  0
ARC
  5
1E4
100
AcDbEntity
  8
0
  6
CONTINUOUS
 62
    7
370
   25
100
AcDbCircle
 10
131.6125
 20
-41.125
 40
0.5000000000000284
100
AcDbArc
 50
90
 51
180
  0
ARC
  5
1E5
100
AcDbEntity
  8
0
  6
CONTINUOUS
 62
    7
370
   25
100
AcDbCircle
 10
93.5125
 20
-54.125
 40
0.5
100
AcDbArc
 50
180
 51
270
  0
ARC
  5
1E6
100
AcDbEntity
  8
0
  6
CONTINUOUS
 62
    7
370
   25
100
AcDbCircle
 10
106.5125
 20
-54.125
 40
0.5000000000000284
100
AcDbArc
 50
270
 51
360
  0
ARC
  5
1E7
100
AcDbEntity
  8
0
  6
CONTINUOUS
 62
    7
370
   25
100
AcDbCircle
 10
106.5125
 20
-41.125
 40
0.5000000000000284
100
AcDbArc
 50
0
 51
90
  0
ARC
  5
1E8
100
AcDbEntity
  8
0
  6
CONTINUOUS
 62
    7
370
   25
100
AcDbCircle
 10
93.5125
 20
-41.125
 40
0.5
100
AcDbArc
 50
90
 51
180
  0
ARC
  5
1E9
100
AcDbEntity
  8
0
  6
CONTINUOUS
 62
    7
370
   25
100
AcDbCircle
 10
55.4125
 20
-54.125
 40
0.5000000000000142
100
AcDbArc
 50
180
 51
270
  0
ARC
  5
1EA
100
AcDbEntity
  8
0
  6
CONTINUOUS
 62
    7
370
   25
100
AcDbCircle
 10
68.41249999999999
 20
-54.125
 40
0.5000000000000284
100
AcDbArc
 50
270
 51
360
  0
ARC
  5
1EB
100
AcDbEntity
  8
0
  6
CONTINUOUS
 62
    7
370
   25
100
AcDbCircle
 10
68.41249999999999
 20
-41.125
 40
0.5000000000000284
100
AcDbArc
 50
0
 51
90
  0
ARC
  5
1EC
100
AcDbEntity
  8
0
  6
CONTINUOUS
 62
    7
370
   25
100
AcDbCircle
 10
55.4125
 20
-41.125
 40
0.5000000000000213
100
AcDbArc
 50
90
 51
180
  0
ARC
  5
1ED
100
AcDbEntity
  8
0
  6
CONTINUOUS
 62
    7
370
   25
100
AcDbCircle
 10
5.40875
 20
-54.125
 40
0.5000000000000151
100
AcDbArc
 50
180
 51
270
  0
ARC
  5
1EE
100
AcDbEntity
  8
0
  6
CONTINUOUS
 62
    7
370
   25
100
AcDbCircle
 10
23.16875
 20
-54.125
 40
0.5000000000000036
100
AcDbArc
 50
270
 51
0
  0
ARC
  5
1EF
100
AcDbEntity
  8
0
  6
CONTINUOUS
 62
    7
370
   25
100
AcDbCircle
 10
23.16875
 20
-41.125
 40
0.5000000000000142
100
AcDbArc
 50
0
 51
90
  0
ARC
  5
1F0
100
AcDbEntity
  8
0
  6
CONTINUOUS
 62
    7
370
   25
100
AcDbCircle
 10
5.40875
 20
-41.125
 40
0.5000000000000258
100
AcDbArc
 50
90
 51
180
  0
ARC
  5
1F1
100
AcDbEntity
  8
0
  6
CONTINUOUS
 62
    7
370
   25
100
AcDbCircle
 10
203.05
 20
-35.075
 40
0.5
100
AcDbArc
 50
180
 51
270
  0
ARC
  5
1F2
100
AcDbEntity
  8
0
  6
CONTINUOUS
 62
    7
370
   25
100
AcDbCircle
 10
216.05
 20
-35.075
 40
0.4999999999999716
100
AcDbArc
 50
270
 51
0
  0
ARC
  5
1F3
100
AcDbEntity
  8
0
  6
CONTINUOUS
 62
    7
370
   25
100
AcDbCircle
 10
216.05
 20
-22.075
 40
0.4999999999999716
100
AcDbArc
 50
360
 51
90
  0
ARC
  5
1F4
100
AcDbEntity
  8
0
  6
CONTINUOUS
 62
    7
370
   25
100
AcDbCircle
 10
203.05
 20
-22.075
 40
0.5
100
AcDbArc
 50
90
 51
180
  0
ARC
  5
1F5
100
AcDbEntity
  8
0
  6
CONTINUOUS
 62
    7
370
   25
100
AcDbCircle
 10
164.95
 20
-35.075
 40
0.5
100
AcDbArc
 50
180
 51
270
  0
ARC
  5
1F6
100
AcDbEntity
  8
0
  6
CONTINUOUS
 62
    7
370
   25
100
AcDbCircle
 10
177.95
 20
-35.075
 40
0.4999999999999716
100
AcDbArc
 50
270
 51
0
  0
ARC
  5
1F7
100
AcDbEntity
  8
0
  6
CONTINUOUS
 62
    7
370
   25
100
AcDbCircle
 10
177.95
 20
-22.075
 40
0.4999999999999716
100
AcDbArc
 50
360
 51
90
  0
ARC
  5
1F8
100
AcDbEntity
  8
0
  6
CONTINUOUS
 62
    7
370
   25
100
AcDbCircle
 10
164.95
 20
-22.075
 40
0.5
100
AcDbArc
 50
90
 51
180
  0
ARC
  5
1F9
100
AcDbEntity
  8
0
  6
CONTINUOUS
 62
    7
370
   25
100
AcDbCircle
 10
126.85
 20
-35.075
 40
0.5000000000000284
100
AcDbArc
 50
180
 51
270
  0
ARC
  5
1FA
100
AcDbEntity
  8
0
  6
CONTINUOUS
 62
    7
370
   25
100
AcDbCircle
 10
139.85
 20
-35.075
 40
0.4999999999999716
100
AcDbArc
 50
270
 51
0
  0
ARC
  5
1FB
100
AcDbEntity
  8
0
  6
CONTINUOUS
 62
    7
370
   25
100
AcDbCircle
 10
139.85
 20
-22.075
 40
0.4999999999999716
100
AcDbArc
 50
360
 51
90
  0
ARC
  5
1FC
100
AcDbEntity
  8
0
  6
CONTINUOUS
 62
    7
370
   25
100
AcDbCircle
 10
126.85
 20
-22.075
 40
0.5000000000000284
100
AcDbArc
 50
90
 51
180
  0
ARC
  5
1FD
100
AcDbEntity
  8
0
  6
CONTINUOUS
 62
    7
370
   25
100
AcDbCircle
 10
88.75
 20
-35.075
 40
0.5000000000000071
100
AcDbArc
 50
180
 51
270
  0
ARC
  5
1FE
100
AcDbEntity
  8
0
  6
CONTINUOUS
 62
    7
370
   25
100
AcDbCircle
 10
101.75
 20
-35.075
 40
0.5000000000000355
100
AcDbArc
 50
270
 51
360
  0
ARC
  5
1FF
100
AcDbEntity
  8
0
  6
CONTINUOUS
 62
    7
370
   25
100
AcDbCircle
 10
101.75
 20
-22.075
 40
0.500000000000032
100
AcDbArc
 50
0
 51
90
  0
ARC
  5
200
100
AcDbEntity
  8
0
  6
CONTINUOUS
 62
    7
370
   25
100
AcDbCircle
 10
88.75
 20
-22.075
 40
0.5000000000000036
100
AcDbArc
 50
90
 51
180
  0
ARC
  5
201
100
AcDbEntity
  8
0
  6
CONTINUOUS
 62
    7
370
   25
100
AcDbCircle
 10
50.65
 20
-35.075
 40
0.5000000000000213
100
AcDbArc
 50
180
 51
270
  0
ARC
  5
202
100
AcDbEntity
  8
0
  6
CONTINUOUS
 62
    7
370
   25
100
AcDbCircle
 10
63.65
 20
-35.075
 40
0.5000000000000284
100
AcDbArc
 50
270
 51
0
  0
ARC
  5
203
100
AcDbEntity
  8
0
  6
CONTINUOUS
 62
    7
370
   25
100
AcDbCircle
 10
63.65
 20
-22.075
 40
0.4999999999999787
100
AcDbArc
 50
360
 51
90
  0
ARC
  5
204
100
AcDbEntity
  8
0
  6
CONTINUOUS
 62
    7
370
   25
100
AcDbCircle
 10
50.65
 20
-22.075
 40
0.5000000000000213
100
AcDbArc
 50
90
 51
180
  0
ARC
  5
205
100
AcDbEntity
  8
0
  6
CONTINUOUS
 62
    7
370
   25
100
AcDbCircle
 10
7.7875
 20
-35.075
 40
0.5000000000000009
100
AcDbArc
 50
180
 51
270
  0
ARC
  5
206
100
AcDbEntity
  8
0
  6
CONTINUOUS
 62
    7
370
   25
100
AcDbCircle
 10
20.7875
 20
-35.075
 40
0.5
100
AcDbArc
 50
270
 51
0
  0
ARC
  5
207
100
AcDbEntity
  8
0
  6
CONTINUOUS
 62
    7
370
   25
100
AcDbCircle
 10
20.7875
 20
-22.075
 40
0.5
100
AcDbArc
 50
0
 51
90
  0
ARC
  5
208
100
AcDbEntity
  8
0
  6
CONTINUOUS
 62
    7
370
   25
100
AcDbCircle
 10
7.7875
 20
-22.075
 40
0.5000000000000009
100
AcDbArc
 50
90
 51
180
  0
ARC
  5
209
100
AcDbEntity
  8
0
  6
CONTINUOUS
 62
    7
370
   25
100
AcDbCircle
 10
98.27500000000001
 20
-16.025
 40
0.5000000000000142
100
AcDbArc
 50
180
 51
270
  0
ARC
  5
20A
100
AcDbEntity
  8
0
  6
CONTINUOUS
 62
    7
370
   25
100
AcDbCircle
 10
111.275
 20
-16.025
 40
0.5000000000000426
100
AcDbArc
 50
270
 51
360
  0
ARC
  5
20B
100
AcDbEntity
  8
0
  6
CONTINUOUS
 62
    7
370
   25
100
AcDbCircle
 10
111.275
 20
-3.025
 40
0.5000000000000426
100
AcDbArc
 50
0
 51
90
  0
ARC
  5
20C
100
AcDbEntity
  8
0
  6
CONTINUOUS
 62
    7
370
   25
100
AcDbCircle
 10
98.27500000000001
 20
-3.025
 40
0.5000000000000142
100
AcDbArc
 50
90
 51
180
  0
ARC
  5
20D
100
AcDbEntity
  8
0
  6
CONTINUOUS
 62
    7
370
   25
100
AcDbCircle
 10
60.175
 20
-16.025
 40
0.5000000000000071
100
AcDbArc
 50
180
 51
270
  0
ARC
  5
20E
100
AcDbEntity
  8
0
  6
CONTINUOUS
 62
    7
370
   25
100
AcDbCircle
 10
73.175
 20
-16.025
 40
0.5000000000000284
100
AcDbArc
 50
270
 51
360
  0
ARC
  5
20F
100
AcDbEntity
  8
0
  6
CONTINUOUS
 62
    7
370
   25
100
AcDbCircle
 10
73.175
 20
-3.025
 40
0.5000000000000284
100
AcDbArc
 50
0
 51
90
  0
ARC
  5
210
100
AcDbEntity
  8
0
  6
CONTINUOUS
 62
    7
370
   25
100
AcDbCircle
 10
60.175
 20
-3.025
 40
0.5000000000000142
100
AcDbArc
 50
90
 51
180
  0
ARC
  5
211
100
AcDbEntity
  8
0
  6
CONTINUOUS
 62
    7
370
   25
100
AcDbCircle
 10
22.075
 20
-16.025
 40
0.5000000000000107
100
AcDbArc
 50
180
 51
270
  0
ARC
  5
212
100
AcDbEntity
  8
0
  6
CONTINUOUS
 62
    7
370
   25
100
AcDbCircle
 10
35.075
 20
-16.025
 40
0.4999999999999929
100
AcDbArc
 50
270
 51
0
  0
ARC
  5
213
100
AcDbEntity
  8
0
  6
CONTINUOUS
 62
    7
370
   25
100
AcDbCircle
 10
35.075
 20
-3.025
 40
0.499999999999988
100
AcDbArc
 50
0
 51
90
  0
ARC
  5
214
100
AcDbEntity
  8
0
  6
CONTINUOUS
 62
    7
370
   25
100
AcDbCircle
 10
22.075
 20
-3.025
 40
0.5000000000000178
100
AcDbArc
 50
90
 51
180
  0
ARC
  5
215
100
AcDbEntity
  8
0
  6
CONTINUOUS
 62
    7
370
   25
100
AcDbCircle
 10
247.0625
 20
-27.7536796564
 40
1.000000000000057
100
AcDbArc
 50
315
 51
0
  0
ARC
  5
216
100
AcDbEntity
  8
0
  6
CONTINUOUS
 62
    7
370
   25
100
AcDbCircle
 10
244.6053932188
 20
-33.0392135624
 40
1.000000000000142
100
AcDbArc
 50
135
 51
180
  0
ARC
  5
217
100
AcDbEntity
  8
0
  6
CONTINUOUS
 62
    7
370
   25
100
AcDbCircle
 10
244.6053932188
 20
-62.2107864376
 40
1.000000000000259
100
AcDbArc
 50
180
 51
225
  0
ARC
  5
218
100
AcDbEntity
  8
0
  6
CONTINUOUS
 62
    7
370
   25
100
AcDbCircle
 10
247.0625
 20
-67.4963203436
 40
1
100
AcDbArc
 50
0
 51
45
  0
ARC
  5
219
100
AcDbEntity
  8
0
  6
CONTINUOUS
 62
    7
370
   25
100
AcDbCircle
 10
247.0625
 20
-72.38235727830001
 40
0.9999999999999716
100
AcDbArc
 50
314.9999999999
 51
0
  0
ARC
  5
21A
100
AcDbEntity
  8
0
  6
CONTINUOUS
 62
    7
370
   25
100
AcDbCircle
 10
246.2340728752
 20
-76.03921152780001
 40
1.000000000000114
100
AcDbArc
 50
135
 51
180
  0
ARC
  5
21B
100
AcDbEntity
  8
0
  6
CONTINUOUS
 62
    7
370
   25
100
AcDbCircle
 10
246.2340728752
 20
-79.7965708406
 40
1.000000000000033
100
AcDbArc
 50
180
 51
250.5287793655
  0
ARC
  5
21C
100
AcDbEntity
  8
0
  6
CONTINUOUS
 62
    7
370
   25
100
AcDbCircle
 10
245.2340728752
 20
-82.6249979654
 40
2.000000000000183
100
AcDbArc
 50
289.4712206345
 51
70.5287793655
  0
ARC
  5
21D
100
AcDbEntity
  8
0
  6
CONTINUOUS
 62
    7
370
   25
100
AcDbCircle
 10
246.2340728752
 20
-85.4534250901
 40
1
100
AcDbArc
 50
109.4712206345
 51
180
  0
ARC
  5
21E
100
AcDbEntity
  8
0
  6
CONTINUOUS
 62
    7
370
   25
100
AcDbCircle
 10
246.2340728752
 20
-89.21078440300001
 40
1.000000000000119
100
AcDbArc
 50
180
 51
225
  0
ARC
  5
21F
100
AcDbEntity
  8
0
  6
CONTINUOUS
 62
    7
370
   25
100
AcDbCircle
 10
247.0625
 20
-92.86763865250001
 40
1.000000000000269
100
AcDbArc
 50
0
 51
45.0000000001
  0
ARC
  5
220
100
AcDbEntity
  8
0
  6
CONTINUOUS
 62
    7
370
   25
100
AcDbCircle
 10
245.0625
 20
-96.625
 40
2.999999999999972
100
AcDbArc
 50
270
 51
0
  0
ARC
  5
221
100
AcDbEntity
  8
0
  6
CONTINUOUS
 62
    7
370
   25
100
AcDbCircle
 10
-6.9375
 20
-96.625
 40
3.000000000000043
100
AcDbArc
 50
180
 51
270
  0
ARC
  5
222
100
AcDbEntity
  8
0
  6
CONTINUOUS
 62
    7
370
   25
100
AcDbCircle
 10
-8.9375
 20
-92.86763865250001
 40
0.9999999999999662
100
AcDbArc
 50
135
 51
180
  0
ARC
  5
223
100
AcDbEntity
  8
0
  6
CONTINUOUS
 62
    7
370
   25
100
AcDbCircle
 10
-8.109072875300001
 20
-89.21078440300001
 40
1.000000000000125
100
AcDbArc
 50
315
 51
360
  0
ARC
  5
224
100
AcDbEntity
  8
0
  6
CONTINUOUS
 62
    7
370
   25
100
AcDbCircle
 10
-8.109072875300001
 20
-85.4534250901
 40
0.9999999999999512
100
AcDbArc
 50
0
 51
70.5287793655
  0
ARC
  5
225
100
AcDbEntity
  8
0
  6
CONTINUOUS
 62
    7
370
   25
100
AcDbCircle
 10
-7.1090728753
 20
-82.6249979654
 40
2.000000000000183
100
AcDbArc
 50
109.4712206345
 51
250.5287793655
  0
ARC
  5
226
100
AcDbEntity
  8
0
  6
CONTINUOUS
 62
    7
370
   25
100
AcDbCircle
 10
-8.109072875300001
 20
-79.7965708406
 40
0.9999999999999655
100
AcDbArc
 50
289.4712206345
 51
0
  0
ARC
  5
227
100
AcDbEntity
  8
0
  6
CONTINUOUS
 62
    7
370
   25
100
AcDbCircle
 10
-8.109072875300001
 20
-76.03921152780001
 40
0.9999999999998687
100
AcDbArc
 50
360
 51
45
  0
ARC
  5
228
100
AcDbEntity
  8
0
  6
CONTINUOUS
 62
    7
370
   25
100
AcDbCircle
 10
-8.9375
 20
-72.38235727830001
 40
1.000000000000098
100
AcDbArc
 50
180
 51
225
  0
ARC
  5
229
100
AcDbEntity
  8
0
  6
CONTINUOUS
 62
    7
370
   25
100
AcDbCircle
 10
-8.9375
 20
-67.4963203436
 40
0.9999999999999858
100
AcDbArc
 50
135
 51
180
  0
ARC
  5
22A
100
AcDbEntity
  8
0
  6
CONTINUOUS
 62
    7
370
   25
100
AcDbCircle
 10
-6.4803932188
 20
-62.2107864376
 40
0.999999999999976
100
AcDbArc
 50
315
 51
0
  0
ARC
  5
22B
100
AcDbEntity
  8
0
  6
CONTINUOUS
 62
    7
370
   25
100
AcDbCircle
 10
-6.4803932188
 20
-33.0392135623
 40
0.9999999999999876
100
AcDbArc
 50
0
 51
45
  0
ARC
  5
22C
100
AcDbEntity
  8
0
  6
CONTINUOUS
 62
    7
370
   25
100
AcDbCircle
 10
-8.9375
 20
-27.7536796564
 40
0.9999999999998845
100
AcDbArc
 50
180
 51
225
  0
ARC
  5
22D
100
AcDbEntity
  8
0
  6
CONTINUOUS
 62
    7
370
   25
100
AcDbCircle
 10
-8.9375000001
 20
-22.8676427217
 40
0.9999999999066951
100
AcDbArc
 50
134.9999999996
 51
180.0000000009
  0
ARC
  5
22E
100
AcDbEntity
  8
0
  6
CONTINUOUS
 62
    7
370
   25
100
AcDbCircle
 10
-8.109072875300001
 20
-19.2107884722
 40
1.000000000000225
100
AcDbArc
 50
315
 51
360
  0
ARC
  5
22F
100
AcDbEntity
  8
0
  6
CONTINUOUS
 62
    7
370
   25
100
AcDbCircle
 10
-8.109072875300001
 20
-15.4534291594
 40
1.000000000001124
100
AcDbArc
 50
359.9999999999
 51
70.5287793656
  0
ARC
  5
230
100
AcDbEntity
  8
0
  6
CONTINUOUS
 62
    7
370
   25
100
AcDbCircle
 10
-7.1090728753
 20
-12.6250020346
 40
2.000000000001219
100
AcDbArc
 50
109.4712206343
 51
250.5287793653
  0
ARC
  5
231
100
AcDbEntity
  8
0
  6
CONTINUOUS
 62
    7
370
   25
100
AcDbCircle
 10
-8.109072875300001
 20
-9.7965749099
 40
1.000000000000246
100
AcDbArc
 50
289.471220635
 51
0
  0
ARC
  5
232
100
AcDbEntity
  8
0
  6
CONTINUOUS
 62
    7
370
   25
100
AcDbCircle
 10
-8.109072875300001
 20
-6.039215597
 40
0.9999999999999791
100
AcDbArc
 50
360
 51
45
  0
ARC
  5
233
100
AcDbEntity
  8
0
  6
CONTINUOUS
 62
    7
370
   25
100
AcDbCircle
 10
-8.9375
 20
-2.3823613475
 40
1.000000000000098
100
AcDbArc
 50
180
 51
225
  0
ARC
  5
234
100
AcDbEntity
  8
0
  6
CONTINUOUS
 62
    7
370
   25
100
AcDbCircle
 10
-6.9375
 20
1.375
 40
2.999999999999976
100
AcDbArc
 50
90
 51
180
  0
ARC
  5
235
100
AcDbEntity
  8
0
  6
CONTINUOUS
 62
    7
370
   25
100
AcDbCircle
 10
245.0625
 20
1.375
 40
2.999999999999972
100
AcDbArc
 50
0
 51
90
  0
ARC
  5
236
100
AcDbEntity
  8
0
  6
CONTINUOUS
 62
    7
370
   25
100
AcDbCircle
 10
247.0625
 20
-2.3823613475
 40
0.999999999999293
100
AcDbArc
 50
315
 51
0
  0
ARC
  5
237
100
AcDbEntity
  8
0
  6
CONTINUOUS
 62
    7
370
   25
100
AcDbCircle
 10
246.2340728752
 20
-6.039215597
 40
0.9999999999999147
100
AcDbArc
 50
135
 51
180
  0
ARC
  5
238
100
AcDbEntity
  8
0
  6
CONTINUOUS
 62
    7
370
   25
100
AcDbCircle
 10
246.2340728752
 20
-9.7965749099
 40
0.9999999999975294
100
AcDbArc
 50
179.9999999998
 51
250.528779367
  0
ARC
  5
239
100
AcDbEntity
  8
0
  6
CONTINUOUS
 62
    7
370
   25
100
AcDbCircle
 10
245.2340728753
 20
-12.6250020346
 40
1.999999999992087
100
AcDbArc
 50
289.471220633
 51
70.528779367
  0
ARC
  5
23A
100
AcDbEntity
  8
0
  6
CONTINUOUS
 62
    7
370
   25
100
AcDbCircle
 10
246.2340728752
 20
-15.4534291594
 40
0.9999999999999745
100
AcDbArc
 50
109.471220633
 51
180
  0
ARC
  5
23B
100
AcDbEntity
  8
0
  6
CONTINUOUS
 62
    7
370
   25
100
AcDbCircle
 10
246.2340728752
 20
-19.2107884723
 40
1.000000000000144
100
AcDbArc
 50
180
 51
225
  0
ARC
  5
23C
100
AcDbEntity
  8
0
  6
CONTINUOUS
 62
    7
370
   25
100
AcDbCircle
 10
247.0625
 20
-22.8676427218
 40
0.9999999999998863
100
AcDbArc
 50
2.2e-009
 51
45
  0
ARC
  5
23D
100
AcDbEntity
  8
0
  6
CONTINUOUS
 62
    7
370
   25
100
AcDbCircle
 10
3.025
 20
-16.025
 40
0.5000000000000115
100
AcDbArc
 50
180
 51
270
  0
ARC
  5
23E
100
AcDbEntity
  8
0
  6
CONTINUOUS
 62
    7
370
   25
100
AcDbCircle
 10
16.025
 20
-16.025
 40
0.4999999999999964
100
AcDbArc
 50
270
 51
0
  0
ARC
  5
23F
100
AcDbEntity
  8
0
  6
CONTINUOUS
 62
    7
370
   25
100
AcDbCircle
 10
16.025
 20
-3.025
 40
0.4999999999999902
100
AcDbArc
 50
0
 51
90
  0
ARC
  5
240
100
AcDbEntity
  8
0
  6
CONTINUOUS
 62
    7
370
   25
100
AcDbCircle
 10
3.025
 20
-3.025
 40
0.500000000000012
100
AcDbArc
 50
90
 51
180
  0
ARC
  5
241
100
AcDbEntity
  8
0
  6
CONTINUOUS
 62
    7
370
   25
100
AcDbCircle
 10
41.125
 20
-16.025
 40
0.5000000000000284
100
AcDbArc
 50
180
 51
270
  0
ARC
  5
242
100
AcDbEntity
  8
0
  6
CONTINUOUS
 62
    7
370
   25
100
AcDbCircle
 10
54.125
 20
-16.025
 40
0.5000000000000213
100
AcDbArc
 50
270
 51
360
  0
ARC
  5
243
100
AcDbEntity
  8
0
  6
CONTINUOUS
 62
    7
370
   25
100
AcDbCircle
 10
54.125
 20
-3.025
 40
0.5000000000000098
100
AcDbArc
 50
0
 51
90
  0
ARC
  5
244
100
AcDbEntity
  8
0
  6
CONTINUOUS
 62
    7
370
   25
100
AcDbCircle
 10
41.125
 20
-3.025
 40
0.5000000000000284
100
AcDbArc
 50
90
 51
180
  0
ARC
  5
245
100
AcDbEntity
  8
0
  6
CONTINUOUS
 62
    7
370
   25
100
AcDbCircle
 10
79.22499999999999
 20
-16.025
 40
0.5000000000000142
100
AcDbArc
 50
180
 51
270
  0
ARC
  5
246
100
AcDbEntity
  8
0
  6
CONTINUOUS
 62
    7
370
   25
100
AcDbCircle
 10
92.22499999999999
 20
-16.025
 40
0.500000000000032
100
AcDbArc
 50
270
 51
360
  0
ARC
  5
247
100
AcDbEntity
  8
0
  6
CONTINUOUS
 62
    7
370
   25
100
AcDbCircle
 10
92.22499999999999
 20
-3.025
 40
0.5000000000000324
100
AcDbArc
 50
0
 51
90
  0
ARC
  5
248
100
AcDbEntity
  8
0
  6
CONTINUOUS
 62
    7
370
   25
100
AcDbCircle
 10
79.22499999999999
 20
-3.025
 40
0.5000000000000142
100
AcDbArc
 50
90
 51
180
  0
ARC
  5
249
100
AcDbEntity
  8
0
  6
CONTINUOUS
 62
    7
370
   25
100
AcDbCircle
 10
117.325
 20
-16.025
 40
0.5000000000000036
100
AcDbArc
 50
180
 51
270
  0
ARC
  5
24A
100
AcDbEntity
  8
0
  6
CONTINUOUS
 62
    7
370
   25
100
AcDbCircle
 10
130.325
 20
-16.025
 40
0.4999999999999716
100
AcDbArc
 50
270
 51
0
  0
ARC
  5
24B
100
AcDbEntity
  8
0
  6
CONTINUOUS
 62
    7
370
   25
100
AcDbCircle
 10
130.325
 20
-3.025
 40
0.4999999999999782
100
AcDbArc
 50
360
 51
90
  0
ARC
  5
24C
100
AcDbEntity
  8
0
  6
CONTINUOUS
 62
    7
370
   25
100
AcDbCircle
 10
117.325
 20
-3.025
 40
0.499999999999972
100
AcDbArc
 50
90
 51
180
  0
ARC
  5
24D
100
AcDbEntity
  8
0
  6
CONTINUOUS
 62
    7
370
   25
100
AcDbCircle
 10
31.6
 20
-35.075
 40
0.4999999999999964
100
AcDbArc
 50
180
 51
270
  0
ARC
  5
24E
100
AcDbEntity
  8
0
  6
CONTINUOUS
 62
    7
370
   25
100
AcDbCircle
 10
44.6
 20
-35.075
 40
0.5000000000000142
100
AcDbArc
 50
270
 51
0
  0
ARC
  5
24F
100
AcDbEntity
  8
0
  6
CONTINUOUS
 62
    7
370
   25
100
AcDbCircle
 10
44.6
 20
-22.075
 40
0.5000000000000142
100
AcDbArc
 50
0
 51
90
  0
ARC
  5
250
100
AcDbEntity
  8
0
  6
CONTINUOUS
 62
    7
370
   25
100
AcDbCircle
 10
31.6
 20
-22.075
 40
0.5
100
AcDbArc
 50
90
 51
180
  0
ARC
  5
251
100
AcDbEntity
  8
0
  6
CONTINUOUS
 62
    7
370
   25
100
AcDbCircle
 10
69.7
 20
-35.075
 40
0.5
100
AcDbArc
 50
180
 51
270
  0
ARC
  5
252
100
AcDbEntity
  8
0
  6
CONTINUOUS
 62
    7
370
   25
100
AcDbCircle
 10
82.7
 20
-35.075
 40
0.5000000000000355
100
AcDbArc
 50
270
 51
360
  0
ARC
  5
253
100
AcDbEntity
  8
0
  6
CONTINUOUS
 62
    7
370
   25
100
AcDbCircle
 10
82.7
 20
-22.075
 40
0.5000000000000284
100
AcDbArc
 50
0
 51
90
  0
ARC
  5
254
100
AcDbEntity
  8
0
  6
CONTINUOUS
 62
    7
370
   25
100
AcDbCircle
 10
69.7
 20
-22.075
 40
0.5000000000000036
100
AcDbArc
 50
90
 51
180
  0
ARC
  5
255
100
AcDbEntity
  8
0
  6
CONTINUOUS
 62
    7
370
   25
100
AcDbCircle
 10
107.8
 20
-35.075
 40
0.5
100
AcDbArc
 50
180
 51
270
  0
ARC
  5
256
100
AcDbEntity
  8
0
  6
CONTINUOUS
 62
    7
370
   25
100
AcDbCircle
 10
120.8
 20
-35.075
 40
0.5000000000000426
100
AcDbArc
 50
270
 51
360
  0
ARC
  5
257
100
AcDbEntity
  8
0
  6
CONTINUOUS
 62
    7
370
   25
100
AcDbCircle
 10
120.8
 20
-22.075
 40
0.5000000000000213
100
AcDbArc
 50
0
 51
90
  0
ARC
  5
258
100
AcDbEntity
  8
0
  6
CONTINUOUS
 62
    7
370
   25
100
AcDbCircle
 10
107.8
 20
-22.075
 40
0.5000000000000036
100
AcDbArc
 50
90
 51
180
  0
ARC
  5
259
100
AcDbEntity
  8
0
  6
CONTINUOUS
 62
    7
370
   25
100
AcDbCircle
 10
145.9
 20
-35.075
 40
0.5
100
AcDbArc
 50
180
 51
270
  0
ARC
  5
25A
100
AcDbEntity
  8
0
  6
CONTINUOUS
 62
    7
370
   25
100
AcDbCircle
 10
158.9
 20
-35.075
 40
0.4999999999999716
100
AcDbArc
 50
270
 51
0
  0
ARC
  5
25B
100
AcDbEntity
  8
0
  6
CONTINUOUS
 62
    7
370
   25
100
AcDbCircle
 10
158.9
 20
-22.075
 40
0.5
100
AcDbArc
 50
360
 51
90
  0
ARC
  5
25C
100
AcDbEntity
  8
0
  6
CONTINUOUS
 62
    7
370
   25
100
AcDbCircle
 10
145.9
 20
-22.075
 40
0.5
100
AcDbArc
 50
90
 51
180
  0
ARC
  5
25D
100
AcDbEntity
  8
0
  6
CONTINUOUS
 62
    7
370
   25
100
AcDbCircle
 10
184
 20
-35.075
 40
0.5
100
AcDbArc
 50
180
 51
270
  0
ARC
  5
25E
100
AcDbEntity
  8
0
  6
CONTINUOUS
 62
    7
370
   25
100
AcDbCircle
 10
197
 20
-35.075
 40
0.4999999999999716
100
AcDbArc
 50
270
 51
0
  0
ARC
  5
25F
100
AcDbEntity
  8
0
  6
CONTINUOUS
 62
    7
370
   25
100
AcDbCircle
 10
197
 20
-22.075
 40
0.4999999999999716
100
AcDbArc
 50
360
 51
90
  0
ARC
  5
260
100
AcDbEntity
  8
0
  6
CONTINUOUS
 62
    7
370
   25
100
AcDbCircle
 10
184
 20
-22.075
 40
0.5
100
AcDbArc
 50
90
 51
180
  0
ARC
  5
261
100
AcDbEntity
  8
0
  6
CONTINUOUS
 62
    7
370
   25
100
AcDbCircle
 10
222.1
 20
-35.075
 40
0.5000000000000284
100
AcDbArc
 50
180
 51
270
  0
ARC
  5
262
100
AcDbEntity
  8
0
  6
CONTINUOUS
 62
    7
370
   25
100
AcDbCircle
 10
235.1
 20
-35.075
 40
0.4999999999999716
100
AcDbArc
 50
270
 51
0
  0
ARC
  5
263
100
AcDbEntity
  8
0
  6
CONTINUOUS
 62
    7
370
   25
100
AcDbCircle
 10
235.1
 20
-22.075
 40
0.4999999999999716
100
AcDbArc
 50
360
 51
90
  0
ARC
  5
264
100
AcDbEntity
  8
0
  6
CONTINUOUS
 62
    7
370
   25
100
AcDbCircle
 10
222.1
 20
-22.075
 40
0.5000000000000284
100
AcDbArc
 50
90
 51
180
  0
ARC
  5
265
100
AcDbEntity
  8
0
  6
CONTINUOUS
 62
    7
370
   25
100
AcDbCircle
 10
36.3625
 20
-54.125
 40
0.5000000000000213
100
AcDbArc
 50
180
 51
270
  0
ARC
  5
266
100
AcDbEntity
  8
0
  6
CONTINUOUS
 62
    7
370
   25
100
AcDbCircle
 10
49.3625
 20
-54.125
 40
0.5000000000000142
100
AcDbArc
 50
270
 51
0
  0
ARC
  5
267
100
AcDbEntity
  8
0
  6
CONTINUOUS
 62
    7
370
   25
100
AcDbCircle
 10
49.3625
 20
-41.125
 40
0.5000000000000213
100
AcDbArc
 50
0
 51
90
  0
ARC
  5
268
100
AcDbEntity
  8
0
  6
CONTINUOUS
 62
    7
370
   25
100
AcDbCircle
 10
36.3625
 20
-41.125
 40
0.5000000000000284
100
AcDbArc
 50
90
 51
180
  0
ARC
  5
269
100
AcDbEntity
  8
0
  6
CONTINUOUS
 62
    7
370
   25
100
AcDbCircle
 10
74.46250000000001
 20
-54.125
 40
0.4999999999999787
100
AcDbArc
 50
180
 51
270
  0
ARC
  5
26A
100
AcDbEntity
  8
0
  6
CONTINUOUS
 62
    7
370
   25
100
AcDbCircle
 10
87.46250000000001
 20
-54.125
 40
0.5000000000000284
100
AcDbArc
 50
270
 51
360
  0
ARC
  5
26B
100
AcDbEntity
  8
0
  6
CONTINUOUS
 62
    7
370
   25
100
AcDbCircle
 10
87.46250000000001
 20
-41.125
 40
0.5000000000000213
100
AcDbArc
 50
0
 51
90
  0
ARC
  5
26C
100
AcDbEntity
  8
0
  6
CONTINUOUS
 62
    7
370
   25
100
AcDbCircle
 10
74.46250000000001
 20
-41.125
 40
0.5000000000000142
100
AcDbArc
 50
90
 51
180
  0
ARC
  5
26D
100
AcDbEntity
  8
0
  6
CONTINUOUS
 62
    7
370
   25
100
AcDbCircle
 10
112.5625
 20
-54.125
 40
0.4999999999999858
100
AcDbArc
 50
180
 51
270
  0
ARC
  5
26E
100
AcDbEntity
  8
0
  6
CONTINUOUS
 62
    7
370
   25
100
AcDbCircle
 10
125.5625
 20
-54.125
 40
0.5000000000000213
100
AcDbArc
 50
270
 51
360
  0
ARC
  5
26F
100
AcDbEntity
  8
0
  6
CONTINUOUS
 62
    7
370
   25
100
AcDbCircle
 10
125.5625
 20
-41.125
 40
0.5000000000000426
100
AcDbArc
 50
0
 51
90
  0
ARC
  5
270
100
AcDbEntity
  8
0
  6
CONTINUOUS
 62
    7
370
   25
100
AcDbCircle
 10
112.5625
 20
-41.125
 40
0.5
100
AcDbArc
 50
90
 51
180
  0
ARC
  5
271
100
AcDbEntity
  8
0
  6
CONTINUOUS
 62
    7
370
   25
100
AcDbCircle
 10
150.6625
 20
-54.125
 40
0.5000000000000284
100
AcDbArc
 50
180
 51
270
  0
ARC
  5
272
100
AcDbEntity
  8
0
  6
CONTINUOUS
 62
    7
370
   25
100
AcDbCircle
 10
163.6625
 20
-54.125
 40
0.5000000000000284
100
AcDbArc
 50
270
 51
360
  0
ARC
  5
273
100
AcDbEntity
  8
0
  6
CONTINUOUS
 62
    7
370
   25
100
AcDbCircle
 10
163.6625
 20
-41.125
 40
0.5000000000000284
100
AcDbArc
 50
0
 51
90
  0
ARC
  5
274
100
AcDbEntity
  8
0
  6
CONTINUOUS
 62
    7
370
   25
100
AcDbCircle
 10
150.6625
 20
-41.125
 40
0.5000000000000284
100
AcDbArc
 50
90
 51
180
  0
ARC
  5
275
100
AcDbEntity
  8
0
  6
CONTINUOUS
 62
    7
370
   25
100
AcDbCircle
 10
188.7625
 20
-54.125
 40
0.5000000000000284
100
AcDbArc
 50
180
 51
270
  0
ARC
  5
276
100
AcDbEntity
  8
0
  6
CONTINUOUS
 62
    7
370
   25
100
AcDbCircle
 10
201.7625
 20
-54.125
 40
0.5000000000000284
100
AcDbArc
 50
270
 51
360
  0
ARC
  5
277
100
AcDbEntity
  8
0
  6
CONTINUOUS
 62
    7
370
   25
100
AcDbCircle
 10
201.7625
 20
-41.125
 40
0.5000000000000284
100
AcDbArc
 50
0
 51
90
  0
ARC
  5
278
100
AcDbEntity
  8
0
  6
CONTINUOUS
 62
    7
370
   25
100
AcDbCircle
 10
188.7625
 20
-41.125
 40
0.5000000000000284
100
AcDbArc
 50
90
 51
180
  0
ARC
  5
279
100
AcDbEntity
  8
0
  6
CONTINUOUS
 62
    7
370
   25
100
AcDbCircle
 10
179.2375
 20
-73.175
 40
0.5000000000000568
100
AcDbArc
 50
180
 51
270
  0
ARC
  5
27A
100
AcDbEntity
  8
0
  6
CONTINUOUS
 62
    7
370
   25
100
AcDbCircle
 10
192.2375
 20
-73.175
 40
0.5000000000000568
100
AcDbArc
 50
270
 51
360
  0
ARC
  5
27B
100
AcDbEntity
  8
0
  6
CONTINUOUS
 62
    7
370
   25
100
AcDbCircle
 10
192.2375
 20
-60.175
 40
0.5000000000000284
100
AcDbArc
 50
0
 51
90
  0
ARC
  5
27C
100
AcDbEntity
  8
0
  6
CONTINUOUS
 62
    7
370
   25
100
AcDbCircle
 10
179.2375
 20
-60.175
 40
0.5000000000000568
100
AcDbArc
 50
90
 51
180
  0
ARC
  5
27D
100
AcDbEntity
  8
0
  6
CONTINUOUS
 62
    7
370
   25
100
AcDbCircle
 10
5.40625
 20
-73.175
 40
0.5000000000000284
100
AcDbArc
 50
180
 51
270
  0
ARC
  5
27E
100
AcDbEntity
  8
0
  6
CONTINUOUS
 62
    7
370
   25
100
AcDbCircle
 10
5.49325
 20
-74.175
 40
0.5
100
AcDbArc
 50
0
 51
90
  0
ARC
  5
27F
100
AcDbEntity
  8
0
  6
CONTINUOUS
 62
    7
370
   25
100
AcDbCircle
 10
6.49325
 20
-75.175
 40
0.5000000000000284
100
AcDbArc
 50
180
 51
270
  0
ARC
  5
280
100
AcDbEntity
  8
0
  6
CONTINUOUS
 62
    7
370
   25
100
AcDbCircle
 10
12.49325
 20
-75.175
 40
0.5000000000000284
100
AcDbArc
 50
270
 51
360
  0
ARC
  5
281
100
AcDbEntity
  8
0
  6
CONTINUOUS
 62
    7
370
   25
100
AcDbCircle
 10
13.49325
 20
-74.175
 40
0.4999999999999858
100
AcDbArc
 50
90
 51
180
  0
ARC
  5
282
100
AcDbEntity
  8
0
  6
CONTINUOUS
 62
    7
370
   25
100
AcDbCircle
 10
29.36925
 20
-74.175
 40
0.5
100
AcDbArc
 50
0
 51
90
  0
ARC
  5
283
100
AcDbEntity
  8
0
  6
CONTINUOUS
 62
    7
370
   25
100
AcDbCircle
 10
30.36925
 20
-75.175
 40
0.5000000000000284
100
AcDbArc
 50
180
 51
270
  0
ARC
  5
284
100
AcDbEntity
  8
0
  6
CONTINUOUS
 62
    7
370
   25
100
AcDbCircle
 10
36.36925
 20
-75.175
 40
0.5000000000000284
100
AcDbArc
 50
270
 51
360
  0
ARC
  5
285
100
AcDbEntity
  8
0
  6
CONTINUOUS
 62
    7
370
   25
100
AcDbCircle
 10
37.36925
 20
-74.175
 40
0.4999999999999858
100
AcDbArc
 50
90
 51
180
  0
ARC
  5
286
100
AcDbEntity
  8
0
  6
CONTINUOUS
 62
    7
370
   25
100
AcDbCircle
 10
39.8375
 20
-73.175
 40
0.5000000000000426
100
AcDbArc
 50
270
 51
360
  0
ARC
  5
287
100
AcDbEntity
  8
0
  6
CONTINUOUS
 62
    7
370
   25
100
AcDbCircle
 10
39.8375
 20
-60.175
 40
0.5000000000000213
100
AcDbArc
 50
0
 51
90
  0
ARC
  5
288
100
AcDbEntity
  8
0
  6
CONTINUOUS
 62
    7
370
   25
100
AcDbCircle
 10
5.40625
 20
-60.175
 40
0.4999999999999858
100
AcDbArc
 50
90
 51
180
  0
ARC
  5
289
100
AcDbEntity
  8
0
  6
CONTINUOUS
 62
    7
370
   25
100
AcDbCircle
 10
45.8875
 20
-73.175
 40
0.5000000000000711
100
AcDbArc
 50
180
 51
270
  0
ARC
  5
28A
100
AcDbEntity
  8
0
  6
CONTINUOUS
 62
    7
370
   25
100
AcDbCircle
 10
58.8875
 20
-73.175
 40
0.5000000000000284
100
AcDbArc
 50
270
 51
360
  0
ARC
  5
28B
100
AcDbEntity
  8
0
  6
CONTINUOUS
 62
    7
370
   25
100
AcDbCircle
 10
58.8875
 20
-60.175
 40
0.5
100
AcDbArc
 50
0
 51
90
  0
ARC
  5
28C
100
AcDbEntity
  8
0
  6
CONTINUOUS
 62
    7
370
   25
100
AcDbCircle
 10
45.8875
 20
-60.175
 40
0.5000000000000284
100
AcDbArc
 50
90
 51
180
  0
ARC
  5
28D
100
AcDbEntity
  8
0
  6
CONTINUOUS
 62
    7
370
   25
100
AcDbCircle
 10
33.98125
 20
-92.22499999999999
 40
0.5000000000000568
100
AcDbArc
 50
180
 51
270
  0
ARC
  5
28E
100
AcDbEntity
  8
0
  6
CONTINUOUS
 62
    7
370
   25
100
AcDbCircle
 10
46.98125
 20
-92.22499999999999
 40
0.5000000000000568
100
AcDbArc
 50
270
 51
360
  0
ARC
  5
28F
100
AcDbEntity
  8
0
  6
CONTINUOUS
 62
    7
370
   25
100
AcDbCircle
 10
46.98125
 20
-79.22499999999999
 40
0.5000000000000142
100
AcDbArc
 50
0
 51
90
  0
ARC
  5
290
100
AcDbEntity
  8
0
  6
CONTINUOUS
 62
    7
370
   25
100
AcDbCircle
 10
33.98125
 20
-79.22499999999999
 40
0.5000000000000284
100
AcDbArc
 50
90
 51
180
  0
ARC
  5
291
100
AcDbEntity
  8
0
  6
CONTINUOUS
 62
    7
370
   25
100
AcDbCircle
 10
86.36875000000001
 20
-92.22499999999999
 40
0.5000000000000284
100
AcDbArc
 50
180
 51
270
  0
ARC
  5
292
100
AcDbEntity
  8
0
  6
CONTINUOUS
 62
    7
370
   25
100
AcDbCircle
 10
99.36875000000001
 20
-92.22499999999999
 40
0.5000000000000284
100
AcDbArc
 50
270
 51
360
  0
ARC
  5
293
100
AcDbEntity
  8
0
  6
CONTINUOUS
 62
    7
370
   25
100
AcDbCircle
 10
99.36875000000001
 20
-79.22499999999999
 40
0.5000000000000142
100
AcDbArc
 50
0
 51
90
  0
ARC
  5
294
100
AcDbEntity
  8
0
  6
CONTINUOUS
 62
    7
370
   25
100
AcDbCircle
 10
86.36875000000001
 20
-79.22499999999999
 40
0.5
100
AcDbArc
 50
90
 51
180
  0
ARC
  5
295
100
AcDbEntity
  8
0
  6
CONTINUOUS
 62
    7
370
   25
100
AcDbCircle
 10
107.80675
 20
-94.22499999999999
 40
0.5000000000000284
100
AcDbArc
 50
270
 51
360
  0
ARC
  5
296
100
AcDbEntity
  8
0
  6
CONTINUOUS
 62
    7
370
   25
100
AcDbCircle
 10
107.80675
 20
-79.22499999999999
 40
0.5000000000000142
100
AcDbArc
 50
0
 51
90
  0
ARC
  5
297
100
AcDbEntity
  8
0
  6
CONTINUOUS
 62
    7
370
   25
100
AcDbCircle
 10
101.80675
 20
-79.22499999999999
 40
0.5000000000000426
100
AcDbArc
 50
90
 51
180
  0
ARC
  5
298
100
AcDbEntity
  8
0
  6
CONTINUOUS
 62
    7
370
   25
100
AcDbCircle
 10
101.80675
 20
-94.22499999999999
 40
0.5000000000000426
100
AcDbArc
 50
180
 51
270
  0
ARC
  5
299
100
AcDbEntity
  8
0
  6
CONTINUOUS
 62
    7
370
   25
100
AcDbCircle
 10
125.55575
 20
-79.22499999999999
 40
0.5000000000000142
100
AcDbArc
 50
90
 51
180
  0
ARC
  5
29A
100
AcDbEntity
  8
0
  6
CONTINUOUS
 62
    7
370
   25
100
AcDbCircle
 10
125.55575
 20
-94.22499999999999
 40
0.5000000000000426
100
AcDbArc
 50
180
 51
270
  0
ARC
  5
29B
100
AcDbEntity
  8
0
  6
CONTINUOUS
 62
    7
370
   25
100
AcDbCircle
 10
131.55575
 20
-94.22499999999999
 40
0.5
100
AcDbArc
 50
270
 51
0
  0
ARC
  5
29C
100
AcDbEntity
  8
0
  6
CONTINUOUS
 62
    7
370
   25
100
AcDbCircle
 10
131.55575
 20
-79.22499999999999
 40
0.5
100
AcDbArc
 50
360
 51
90
  0
ARC
  5
29D
100
AcDbEntity
  8
0
  6
CONTINUOUS
 62
    7
370
   25
100
AcDbCircle
 10
191.14375
 20
-92.22499999999999
 40
0.5
100
AcDbArc
 50
180
 51
270
  0
ARC
  5
29E
100
AcDbEntity
  8
0
  6
CONTINUOUS
 62
    7
370
   25
100
AcDbCircle
 10
204.14375
 20
-92.22499999999999
 40
0.5000000000000568
100
AcDbArc
 50
270
 51
360
  0
ARC
  5
29F
100
AcDbEntity
  8
0
  6
CONTINUOUS
 62
    7
370
   25
100
AcDbCircle
 10
204.14375
 20
-79.22499999999999
 40
0.5000000000000284
100
AcDbArc
 50
0
 51
90
  0
ARC
  5
2A0
100
AcDbEntity
  8
0
  6
CONTINUOUS
 62
    7
370
   25
100
AcDbCircle
 10
191.14375
 20
-79.22499999999999
 40
0.4999999999999716
100
AcDbArc
 50
90
 51
180
  0
ARC
  5
2A1
100
AcDbEntity
  8
0
  6
CONTINUOUS
 62
    7
370
   25
100
AcDbCircle
 10
236.375
 20
-0.4534271247
 40
3.000000000000004
100
AcDbArc
 50
0
 51
70.5287793655
  0
ARC
  5
2A2
100
AcDbEntity
  8
0
  6
CONTINUOUS
 62
    7
370
   25
100
AcDbCircle
 10
156.375
 20
-0.625
 40
3.000000000000028
100
AcDbArc
 50
90
 51
180
  0
ARC
  5
2A3
100
AcDbEntity
  8
0
  6
CONTINUOUS
 62
    7
370
   25
100
AcDbCircle
 10
156.375
 20
-14.625
 40
3.000000000000028
100
AcDbArc
 50
180
 51
270
  0
ARC
  5
2A4
100
AcDbEntity
  8
0
  6
CONTINUOUS
 62
    7
370
   25
100
AcDbCircle
 10
236.375
 20
-14.7965728752
 40
3.000000000000171
100
AcDbArc
 50
289.4712206345
 51
360
  0
ARC
  5
2A5
100
AcDbEntity
  8
0
  6
CONTINUOUS
 62
    7
370
   25
100
AcDbCircle
 10
244.2340728753
 20
-75.21078440300001
 40
1.000000000000114
100
AcDbArc
 50
135
 51
180
  0
ARC
  5
2A6
100
AcDbEntity
  8
0
  6
CONTINUOUS
 62
    7
370
   25
100
AcDbCircle
 10
245.0625
 20
-71.5539301535
 40
1.000000000000561
100
AcDbArc
 50
315
 51
360
  0
ARC
  5
2A7
100
AcDbEntity
  8
0
  6
CONTINUOUS
 62
    7
370
   25
100
AcDbCircle
 10
245.0625
 20
-68.9681437159
 40
1
100
AcDbArc
 50
0
 51
90
  0
ARC
  5
2A8
100
AcDbEntity
  8
0
  6
CONTINUOUS
 62
    7
370
   25
100
AcDbCircle
 10
244.8982864376
 20
-68.9681437159
 40
1
100
AcDbArc
 50
90
 51
180
  0
ARC
  5
2A9
100
AcDbEntity
  8
0
  6
CONTINUOUS
 62
    7
370
   25
100
AcDbCircle
 10
242.8982864376
 20
-71.59682337229999
 40
0.9999999999998295
100
AcDbArc
 50
315
 51
0
  0
ARC
  5
2AA
100
AcDbEntity
  8
0
  6
CONTINUOUS
 62
    7
370
   25
100
AcDbCircle
 10
242.7340728753
 20
-74.5894640594
 40
1
100
AcDbArc
 50
135
 51
180
  0
ARC
  5
2AB
100
AcDbEntity
  8
0
  6
CONTINUOUS
 62
    7
370
   25
100
AcDbCircle
 10
242.7340728753
 20
-90.66053187129999
 40
0.9999999999997442
100
AcDbArc
 50
180
 51
225
  0
ARC
  5
2AC
100
AcDbEntity
  8
0
  6
CONTINUOUS
 62
    7
370
   25
100
AcDbCircle
 10
242.8982864376
 20
-93.6531725584
 40
0.9999999999999277
100
AcDbArc
 50
0
 51
45
  0
ARC
  5
2AD
100
AcDbEntity
  8
0
  6
CONTINUOUS
 62
    7
370
   25
100
AcDbCircle
 10
244.8982864376
 20
-96.2818522149
 40
0.9999999999999574
100
AcDbArc
 50
180
 51
270
  0
ARC
  5
2AE
100
AcDbEntity
  8
0
  6
CONTINUOUS
 62
    7
370
   25
100
AcDbCircle
 10
245.0625
 20
-96.2818522149
 40
1
100
AcDbArc
 50
270
 51
0
  0
ARC
  5
2AF
100
AcDbEntity
  8
0
  6
CONTINUOUS
 62
    7
370
   25
100
AcDbCircle
 10
245.0625
 20
-93.6960657772
 40
1.000000000000028
100
AcDbArc
 50
0
 51
45
  0
ARC
  5
2B0
100
AcDbEntity
  8
0
  6
CONTINUOUS
 62
    7
370
   25
100
AcDbCircle
 10
244.2340728753
 20
-90.03921152780001
 40
0.9999999999999716
100
AcDbArc
 50
180
 51
225
  0
ARC
  5
2B1
100
AcDbEntity
  8
0
  6
CONTINUOUS
 62
    7
370
   25
100
AcDbCircle
 10
-6.1090728753
 20
-20.039215597
 40
0.99999999999996
100
AcDbArc
 50
315
 51
0
  0
ARC
  5
2B2
100
AcDbEntity
  8
0
  6
CONTINUOUS
 62
    7
370
   25
100
AcDbCircle
 10
-6.9375
 20
-23.6960698465
 40
0.999999999999992
100
AcDbArc
 50
135
 51
180
  0
ARC
  5
2B3
100
AcDbEntity
  8
0
  6
CONTINUOUS
 62
    7
370
   25
100
AcDbCircle
 10
-6.9375
 20
-26.2818562841
 40
1.000000000000036
100
AcDbArc
 50
180
 51
270
  0
ARC
  5
2B4
100
AcDbEntity
  8
0
  6
CONTINUOUS
 62
    7
370
   25
100
AcDbCircle
 10
-6.7732864376
 20
-26.2818562841
 40
1.000000000000014
100
AcDbArc
 50
270
 51
0
  0
ARC
  5
2B5
100
AcDbEntity
  8
0
  6
CONTINUOUS
 62
    7
370
   25
100
AcDbCircle
 10
-4.7732864376
 20
-23.6531766277
 40
1.000000000000035
100
AcDbArc
 50
135
 51
180
  0
ARC
  5
2B6
100
AcDbEntity
  8
0
  6
CONTINUOUS
 62
    7
370
   25
100
AcDbCircle
 10
-4.6090728753
 20
-20.6605359406
 40
1.000000000000022
100
AcDbArc
 50
315
 51
0
  0
ARC
  5
2B7
100
AcDbEntity
  8
0
  6
CONTINUOUS
 62
    7
370
   25
100
AcDbCircle
 10
-4.6090728753
 20
-4.5894681287
 40
0.9999999999998215
100
AcDbArc
 50
359.9999999993
 51
44.999999999
  0
ARC
  5
2B8
100
AcDbEntity
  8
0
  6
CONTINUOUS
 62
    7
370
   25
100
AcDbCircle
 10
-4.7732864376
 20
-1.5968274416
 40
1.000000000000034
100
AcDbArc
 50
180
 51
225
  0
ARC
  5
2B9
100
AcDbEntity
  8
0
  6
CONTINUOUS
 62
    7
370
   25
100
AcDbCircle
 10
-6.7732864376
 20
1.0318522149
 40
0.9999999999999858
100
AcDbArc
 50
0
 51
90
  0
ARC
  5
2BA
100
AcDbEntity
  8
0
  6
CONTINUOUS
 62
    7
370
   25
100
AcDbCircle
 10
-6.9375
 20
1.0318522149
 40
1.000000000000011
100
AcDbArc
 50
89.9999999993
 51
180
  0
ARC
  5
2BB
100
AcDbEntity
  8
0
  6
CONTINUOUS
 62
    7
370
   25
100
AcDbCircle
 10
-6.9375
 20
-1.5539342228
 40
0.9999999999996421
100
AcDbArc
 50
180
 51
225
  0
ARC
  5
2BC
100
AcDbEntity
  8
0
  6
CONTINUOUS
 62
    7
370
   25
100
AcDbCircle
 10
-6.1090728753
 20
-5.2107884722
 40
1.000000000000006
100
AcDbArc
 50
0
 51
45
  0
ARC
  5
2BD
100
AcDbEntity
  8
0
  6
CONTINUOUS
 62
    7
370
   25
100
AcDbCircle
 10
64.9375
 20
-73.175
 40
0.5000000000000284
100
AcDbArc
 50
180
 51
270
  0
ARC
  5
2BE
100
AcDbEntity
  8
0
  6
CONTINUOUS
 62
    7
370
   25
100
AcDbCircle
 10
77.9375
 20
-73.175
 40
0.5000000000000568
100
AcDbArc
 50
270
 51
360
  0
ARC
  5
2BF
100
AcDbEntity
  8
0
  6
CONTINUOUS
 62
    7
370
   25
100
AcDbCircle
 10
77.9375
 20
-60.175
 40
0.5000000000000142
100
AcDbArc
 50
0
 51
90
  0
ARC
  5
2C0
100
AcDbEntity
  8
0
  6
CONTINUOUS
 62
    7
370
   25
100
AcDbCircle
 10
64.9375
 20
-60.175
 40
0.5000000000000071
100
AcDbArc
 50
90
 51
180
  0
ARC
  5
2C1
100
AcDbEntity
  8
0
  6
CONTINUOUS
 62
    7
370
   25
100
AcDbCircle
 10
103.0375
 20
-73.175
 40
0.5000000000000284
100
AcDbArc
 50
180
 51
270
  0
ARC
  5
2C2
100
AcDbEntity
  8
0
  6
CONTINUOUS
 62
    7
370
   25
100
AcDbCircle
 10
116.0375
 20
-73.175
 40
0.5000000000000568
100
AcDbArc
 50
270
 51
360
  0
ARC
  5
2C3
100
AcDbEntity
  8
0
  6
CONTINUOUS
 62
    7
370
   25
100
AcDbCircle
 10
116.0375
 20
-60.175
 40
0.5000000000000142
100
AcDbArc
 50
0
 51
90
  0
ARC
  5
2C4
100
AcDbEntity
  8
0
  6
CONTINUOUS
 62
    7
370
   25
100
AcDbCircle
 10
103.0375
 20
-60.175
 40
0.5000000000000568
100
AcDbArc
 50
90
 51
180
  0
ARC
  5
2C5
100
AcDbEntity
  8
0
  6
CONTINUOUS
 62
    7
370
   25
100
AcDbCircle
 10
141.1375
 20
-73.175
 40
0.5000000000000568
100
AcDbArc
 50
180
 51
270
  0
ARC
  5
2C6
100
AcDbEntity
  8
0
  6
CONTINUOUS
 62
    7
370
   25
100
AcDbCircle
 10
154.1375
 20
-73.175
 40
0.5000000000000568
100
AcDbArc
 50
270
 51
360
  0
ARC
  5
2C7
100
AcDbEntity
  8
0
  6
CONTINUOUS
 62
    7
370
   25
100
AcDbCircle
 10
154.1375
 20
-60.175
 40
0.5000000000000284
100
AcDbArc
 50
0
 51
90
  0
ARC
  5
2C8
100
AcDbEntity
  8
0
  6
CONTINUOUS
 62
    7
370
   25
100
AcDbCircle
 10
141.1375
 20
-60.175
 40
0.5000000000000568
100
AcDbArc
 50
90
 51
180
  0
ENDSEC
  0
SECTION
  2
OBJECTS
  0
DICTIONARY
  5
C
330
0
100
AcDbDictionary
281
    1
  3
ACAD_GROUP
350
D
  0
DICTIONARY
  5
D
330
C
100
AcDbDictionary
281
    1
  0
PLOTSETTINGS
  5
2C9
100
AcDbPlotSettings
  6
1x1
 40
0
 41
0
 42
0
 43
0
  0
ENDSEC
  0
EOF
